<svg xmlns="http://www.w3.org/2000/svg" width="374.211" height="112.426" viewBox="0 0 374.211 112.426">
  <g id="Group_4" data-name="Group 4" transform="translate(-923.409 -288.646)">
    <path id="Path_298" data-name="Path 298" d="M279.4,190.353A23.453,23.453,0,1,0,302.853,166.9,23.431,23.431,0,0,0,279.4,190.353Z" transform="translate(671.388 185.12)" fill="rgba(175,173,173,0.7)" stroke="#0d4a09" stroke-miterlimit="22" stroke-width="0.71"/>
    <path id="Path_299" data-name="Path 299" d="M302.546,170.8A19.346,19.346,0,1,1,283.2,190.146a19.849,19.849,0,0,1,5.62-13.726A19.381,19.381,0,0,1,302.546,170.8Z" transform="translate(671.695 185.435)" fill="none" stroke="#0d4a09" stroke-miterlimit="22" stroke-width="0.71"/>
    <path id="Path_300" data-name="Path 300" d="M301.229,187.1a1.729,1.729,0,1,1-1.729,1.729A1.857,1.857,0,0,1,301.229,187.1Z" transform="translate(673.012 186.752)" fill="none" stroke="#0d4a09" stroke-miterlimit="22" stroke-width="0.71"/>
    <path id="Path_301" data-name="Path 301" d="M302.907,173.112a24.215,24.215,0,0,1-2.378,9.511,28.472,28.472,0,0,1-1.729-9.511A13.08,13.08,0,0,1,302.907,173.112Z" transform="translate(673.82 185.609)" fill="none" stroke="#0d4a09" stroke-miterlimit="22" stroke-width="0.71"/>
    <path id="Path_302" data-name="Path 302" d="M297.657,177.486a24.318,24.318,0,0,1-7.457,6.268A27.313,27.313,0,0,1,294.415,175,36.749,36.749,0,0,1,297.657,177.486Z" transform="translate(688.364 185.775)" fill="none" stroke="#0d4a09" stroke-miterlimit="22" stroke-width="0.71"/>
    <path id="Path_303" data-name="Path 303" d="M295.335,186.491a25.1,25.1,0,0,1-9.835.54,29.229,29.229,0,0,1,8.538-4.431A20.544,20.544,0,0,1,295.335,186.491Z" transform="translate(695.766 186.389)" fill="none" stroke="#0d4a09" stroke-miterlimit="22" stroke-width="0.71"/>
    <path id="Path_304" data-name="Path 304" d="M294.114,196.2a25.824,25.824,0,0,1-8.214-5.4,28.277,28.277,0,0,1,9.511,1.513A11.8,11.8,0,0,1,294.114,196.2Z" transform="translate(695.258 187.051)" fill="none" stroke="#0d4a09" stroke-miterlimit="22" stroke-width="0.71"/>
    <path id="Path_305" data-name="Path 305" d="M294.291,202.97A24.652,24.652,0,0,1,290.4,194a27.184,27.184,0,0,1,7.133,6.485A14.382,14.382,0,0,1,294.291,202.97Z" transform="translate(688.272 187.309)" fill="none" stroke="#0d4a09" stroke-miterlimit="22" stroke-width="0.71"/>
    <path id="Path_306" data-name="Path 306" d="M298.8,205.019a26.339,26.339,0,0,1,1.945-9.619,28.37,28.37,0,0,1,2.162,9.4A17.17,17.17,0,0,1,298.8,205.019Z" transform="translate(673.82 187.422)" fill="none" stroke="#0d4a09" stroke-miterlimit="22" stroke-width="0.71"/>
    <path id="Path_307" data-name="Path 307" d="M304.7,200.893a23.4,23.4,0,0,1,7.241-6.593,29.279,29.279,0,0,1-3.783,8.862A15.961,15.961,0,0,1,304.7,200.893Z" transform="translate(658.409 187.334)" fill="none" stroke="#0d4a09" stroke-miterlimit="22" stroke-width="0.71"/>
    <path id="Path_308" data-name="Path 308" d="M307.4,191.982a24.723,24.723,0,0,1,9.727-.973,30.579,30.579,0,0,1-8.322,4.863A18.753,18.753,0,0,1,307.4,191.982Z" transform="translate(650.305 187.058)" fill="none" stroke="#0d4a09" stroke-miterlimit="22" stroke-width="0.71"/>
    <path id="Path_309" data-name="Path 309" d="M308.689,182a24.119,24.119,0,0,1,8.43,5.08A28.959,28.959,0,0,1,307.5,186,17.047,17.047,0,0,1,308.689,182Z" transform="translate(650.205 186.34)" fill="none" stroke="#0d4a09" stroke-miterlimit="22" stroke-width="0.71"/>
    <path id="Path_310" data-name="Path 310" d="M308.542,175.1a24.867,24.867,0,0,1,4,8.97,29.261,29.261,0,0,1-7.241-6.377A12.245,12.245,0,0,1,308.542,175.1Z" transform="translate(657.161 185.783)" fill="none" stroke="#0d4a09" stroke-miterlimit="22" stroke-width="0.71"/>
    <path id="el45" d="M297.147,166.052a25.153,25.153,0,1,0,30.262,18.7A25.235,25.235,0,0,0,297.147,166.052Z" transform="translate(671.366 184.996)" fill="none" stroke="#0d4a09" stroke-miterlimit="22" stroke-width="0.71"/>
    <path id="el45-2" data-name="el45" d="M297.147,166.052a25.153,25.153,0,1,0,30.262,18.7A25.235,25.235,0,0,0,297.147,166.052Z" transform="translate(671.366 184.996)" fill="none" stroke="#0d4a09" stroke-miterlimit="22" stroke-width="0.71"/>
    <path id="Path_313" data-name="Path 313" d="M326.5,159.017a18.333,18.333,0,0,1,4.863-.108c2.053.216.865,1.189,6.485.54" transform="translate(608.941 184.465)" fill="none" stroke="#0d4a09" stroke-miterlimit="22" stroke-width="0.71"/>
    <path id="Path_314" data-name="Path 314" d="M326.659,159.293c1.3-1.4,14.59-4.215,14.7-3.891,1.3,2.486-3.35,4-5.3,5.62-.973.865-10.7,8.538-12.861,10.267C322.985,167.939,326.659,159.293,326.659,159.293Z" transform="translate(608.782 184.19)" fill="none" stroke="#0d4a09" stroke-miterlimit="22" stroke-width="0.71"/>
    <path id="Path_318" data-name="Path 318" d="M22.338,206.51h1.723C16.63,181.544,33,164.792,49.691,165.441c30.692,1.3,32.845,27.884,35.968,41.178,61.491-3.35,119.967-1.513,178.442-1.189-.215-33.072,20.892-39.34,31.23-39.34,12.707,0,34.568,8.646,30.8,37.719l39.845-8c.969-.865,9.8-.757,8.4-8.106a52.382,52.382,0,0,1-.431-10.051c0-2.594-.754-4-.754-5.188a11.748,11.748,0,0,0-4.523-8.322v-.757c.431-3.567-.646-4.972-2.369-6.377a7.556,7.556,0,0,0-1.723-4.972c-1.077-5.08-3.015-6.7-5.708-9.727-1.077-1.189-2.585-.973-4.738-1.3-8.184-.973-23.261-3.458-31.23-5.728-4.415-1.3-7.646-3.026-11.738-4.539-15.184-5.188-26.922-13.618-43.614-17.509-.431-.108.108-4-.323-4-1.831-.108-1.831,3.567-2.261,3.458a74.466,74.466,0,0,0-9.692-1.3c-17.23-.865-35.43-3.242-51.583-2.594s-30.907,1.081-44.907,6.7a309.393,309.393,0,0,0-45.768,23.345c-3.015,1.945-3.985,2.7-8.938,3.458-7.969,1.189-59.66,5.188-83.029,12.537-7.323,2.27-12.277,4.215-12.169,6.485a33.413,33.413,0,0,0-3.554,13.185c-1.077,2.162-2.692,4.972-3.661,7.241-1.185,1.621-.646,2.378,0,3.026a12.637,12.637,0,0,1,1.723,1.621,2.067,2.067,0,0,1,.215,1.4,3.8,3.8,0,0,1-.646,1.513,2.336,2.336,0,0,0-.215,3.134c1.723,2.486,3.554,1.945.323,5.08-.862.757-2.154,3.458,0,4.431A65.989,65.989,0,0,0,22.338,206.51Z" transform="translate(922.753 180.419)" fill="none" stroke="#0d4a09" stroke-miterlimit="22" stroke-width="0.71"/>
    <path id="Path_319" data-name="Path 319" d="M260.38,154.89c23.777-8.862,60.091-11.672,86.894-14.59-1.4,3.134-5.944,5.512-17.292,8l-61.28,5.4c-.108.324-.865.108-1.081,1.4-1.3.865-4.863.973-6.052,1.945-.757.648-5.188,1.621-6.268,1.621C255.948,155.863,260.92,154.674,260.38,154.89Z" transform="translate(676.466 182.972)" fill="none" stroke="#0d4a09" stroke-miterlimit="22" stroke-width="0.71"/>
    <path id="el41" d="M351.485,151.6c-54.8,1.4-75.87,4.215-76.951,4.107.432,1.081.108,1.945-1.189,2.918-4.539,3.567-9.511,6.809-13.834,10.484-.865.757-2.27,1.945-3.242,2.81l-5.836,11.024c.865.432-.108,2.162-.432,2.7,4,2.918,8,4.755,10.267,11.132a18.511,18.511,0,0,0,3.458.108c0-24.534,16.212-37.611,32.531-38.151,18.7-.648,38.8,14.05,44.42,37.719,7.457-.216,5.728-.108,13.185-.324C350.836,179.052,350.836,166.515,351.485,151.6Z" transform="translate(675.606 183.885)" fill="rgba(175,173,173,0.7)" stroke="#0d4a09" stroke-miterlimit="22" stroke-width="0.71"/>
    <path id="el42" d="M250.271,189.556c-1.405-26.263,4.323-52.526,9.943-78.356a166.8,166.8,0,0,0-37.287,4.539c-13.294,3.242-25.614,11.24-36.962,17.725a112.079,112.079,0,0,0-13.51,7.782c-1.081.865-7.457,6.16-8,6.809-.54.54-2.7,5.188-2.7,6.485a152.247,152.247,0,0,0,2.486,44.852c29.073-.54,56.308-.865,87.327-1.513C251.028,195.284,250.6,192.474,250.271,189.556Z" transform="translate(864.835 180.621)" fill="rgba(0,85,38,0.7)" stroke="#0d4a09" stroke-miterlimit="22" stroke-width="0.71"/>
    <path id="el412" d="M165.7,145.591l11.456-.865L242,140.619c.108-3.783,5.512-19.238,8.214-27.019H247.3c-23.561,1.405-40.1,4.647-62.145,19.886" transform="translate(869.841 180.815)" fill="none" stroke="#0d4a09" stroke-miterlimit="22" stroke-width="0.71"/>
    <path id="Path_320" data-name="Path 320" d="M263.69,140l-97.7.432c-29.613.973-59.767,4.539-89.488,5.512" transform="translate(952.533 182.948)" fill="none" stroke="#0d4a09" stroke-miterlimit="22" stroke-width="0.71"/>
    <path id="el43" d="M177.132,142.211c-7.349-12.537-35.233-26.911-51.661-28.316-13.185-1.189-26.263-2.7-39.664-2.594-6.917,27.668-10.051,48.635-10.051,75.762a54.018,54.018,0,0,0,1.4,11.024l66.684-.865c0-8.646,5.188-20.21,11.24-26.263,3.026-3.026,16-13.4,21.4-20.643A7.393,7.393,0,0,0,177.132,142.211Z" transform="translate(1038.798 180.629)" fill="rgba(0,85,38,0.7)" stroke="#0d4a09" stroke-miterlimit="22" stroke-width="0.71"/>
    <path id="el413" d="M164.779,139.648c-23.237-23.777-48.635-26.371-81.49-26.047L82.1,140.081Z" transform="translate(1045.21 180.813)" fill="none" stroke="#0d4a09" stroke-miterlimit="22" stroke-width="0.71"/>
    <path id="Path_322" data-name="Path 322" d="M192.9,152l64.09-5.3" transform="translate(833.744 183.489)" fill="none" stroke="#0d4a09" stroke-miterlimit="22" stroke-width="0.71"/>
    <path id="Path_323" data-name="Path 323" d="M176.2,147.748c2.162.54,14.266-.108,17.617-.648" transform="translate(914.781 183.521)" fill="none" stroke="#0d4a09" stroke-miterlimit="22" stroke-width="0.71"/>
    <path id="el415" d="M178.827,145.027c-1.837.216-4.431,2.378-.973,4,.757.324,3.567,1.3,3.567,1.3-1.621-2.594,8.214-3.458,7.565,0,4.755,0,8-5.512,1.4-5.512A69.111,69.111,0,0,0,178.827,145.027Z" transform="translate(914.532 183.325)" fill="none" stroke="#0d4a09" stroke-miterlimit="22" stroke-width="0.71"/>
    <path id="Path_324" data-name="Path 324" d="M86.6,145.848c2.162.54,14.266-.108,17.617-.648" transform="translate(1100.854 183.368)" fill="none" stroke="#0d4a09" stroke-miterlimit="22" stroke-width="0.71"/>
    <path id="el416" d="M89.227,143.125c-1.837.216-4.431,2.378-.973,4,.757.324,3.567,1.3,3.567,1.3-1.621-2.594,8.214-3.458,7.565,0,4.755,0,8-5.512,1.405-5.512A82.94,82.94,0,0,0,89.227,143.125Z" transform="translate(1100.605 183.173)" fill="none" stroke="#0d4a09" stroke-miterlimit="22" stroke-width="0.71"/>
    <path id="Path_325" data-name="Path 325" d="M103,145.781l78.248-1.081" transform="translate(1006.25 183.327)" fill="none" stroke="#0d4a09" stroke-miterlimit="22" stroke-width="0.71"/>
    <path id="Path_326" data-name="Path 326" d="M64.2,145.2l24.1.432" transform="translate(1140.893 183.368)" fill="none" stroke="#0d4a09" stroke-miterlimit="22" stroke-width="0.71"/>
    <path id="Path_327" data-name="Path 327" d="M29.4,146.6l17.509.324" transform="translate(1219.635 183.481)" fill="none" stroke="#0d4a09" stroke-miterlimit="22" stroke-width="0.71"/>
    <path id="Path_328" data-name="Path 328" d="M29.041,154.273c2.27,1.837,2.486,3.242,2.162,7.025,0,.216,0,0,.108.216-6.377-1.837-18.265-10.159-24.209-13.726C5.156,146.6,8.182,142.6,11.532,142.6c2.27,0,8.43-.108,9.943,1.081,2.918,2.162,4.215,1.3,4.215,1.3a4.966,4.966,0,0,1,.757,1.729,9.347,9.347,0,0,1,.648,2.486C27.2,149.625,29.041,150.922,29.041,154.273Z" transform="translate(1259.983 183.157)" fill="none" stroke="#0d4a09" stroke-miterlimit="22" stroke-width="0.71"/>
    <path id="Path_329" data-name="Path 329" d="M19.527,148.8l-9.727.324c0,1.513,3.458,3.458,4.755,4h9.187c-.432-2.378-.648-3.675-3.458-4.323Z" transform="translate(1263.984 183.658)" fill="none" stroke="#0d4a09" stroke-miterlimit="22" stroke-width="0.71"/>
    <path id="Path_330" data-name="Path 330" d="M16.731,159.188,7.112,154h7.457a4.212,4.212,0,0,1,2.378,4.647A.826.826,0,0,1,16.731,159.188Z" transform="translate(1273.589 184.078)" fill="none" stroke="#0d4a09" stroke-miterlimit="22" stroke-width="0.71"/>
    <path id="Path_331" data-name="Path 331" d="M13.93,145.3c-1.081-.108-2.7,1.189-1.513,2.378l.648.324h-.108l15.563.324a2.906,2.906,0,0,0-2.918-2.918L13.93,145.3Z" transform="translate(1256.828 183.375)" fill="none" stroke="#0d4a09" stroke-miterlimit="22" stroke-width="0.71"/>
    <path id="Path_332" data-name="Path 332" d="M29.482,144.695c0-1.729-2.162-1.081-3.567-1.189a60.636,60.636,0,0,0-6.268,0c-1.3.432-3.891,2.053-2.594,3.35.216.324.432-.865.973-1.4,1.189-1.405,4.755-1.081,6.593-1.081h4.539v.324" transform="translate(1250.787 183.224)" fill="none" stroke="#0d4a09" stroke-miterlimit="22" stroke-width="0.71"/>
    <path id="Path_333" data-name="Path 333" d="M1.3,187.925,49.286,180.9" transform="translate(1247.627 186.251)" fill="none" stroke="#0d4a09" stroke-miterlimit="22" stroke-width="0.71"/>
    <path id="Path_334" data-name="Path 334" d="M76.916,166.9a23.508,23.508,0,1,1-16.644,6.917A23.662,23.662,0,0,1,76.916,166.9Z" transform="translate(1140.468 185.12)" fill="rgba(175,173,173,0.7)" stroke="#0d4a09" stroke-miterlimit="22" stroke-width="0.71"/>
    <path id="Path_335" data-name="Path 335" d="M76.585,170.8a19.322,19.322,0,1,1-16.1,30.046,19.273,19.273,0,0,1,16.1-30.046Z" transform="translate(1140.81 185.435)" fill="none" stroke="#0d4a09" stroke-miterlimit="22" stroke-width="0.71"/>
    <path id="Path_336" data-name="Path 336" d="M75.229,187.1a1.729,1.729,0,1,1-1.729,1.729,1.86,1.86,0,0,1,1.729-1.729Z" transform="translate(1142.206 186.752)" fill="none" stroke="#0d4a09" stroke-miterlimit="22" stroke-width="0.71"/>
    <path id="Path_337" data-name="Path 337" d="M76.907,173.112a26.794,26.794,0,0,1-2.378,9.511,28.472,28.472,0,0,1-1.729-9.511A13.08,13.08,0,0,1,76.907,173.112Z" transform="translate(1143.012 185.609)" fill="none" stroke="#0d4a09" stroke-miterlimit="22" stroke-width="0.71"/>
    <path id="Path_338" data-name="Path 338" d="M71.765,177.486a23.511,23.511,0,0,1-7.565,6.268A27.313,27.313,0,0,1,68.415,175,26.939,26.939,0,0,1,71.765,177.486Z" transform="translate(1157.417 185.775)" fill="none" stroke="#0d4a09" stroke-miterlimit="22" stroke-width="0.71"/>
    <path id="Path_339" data-name="Path 339" d="M69.435,186.491a25.1,25.1,0,0,1-9.835.54,29.229,29.229,0,0,1,8.538-4.431A11.806,11.806,0,0,1,69.435,186.491Z" transform="translate(1164.469 186.389)" fill="none" stroke="#0d4a09" stroke-miterlimit="22" stroke-width="0.71"/>
    <path id="Path_340" data-name="Path 340" d="M68.114,196.2a25.824,25.824,0,0,1-8.214-5.4,28.277,28.277,0,0,1,9.511,1.513A14.979,14.979,0,0,1,68.114,196.2Z" transform="translate(1164.169 187.051)" fill="none" stroke="#0d4a09" stroke-miterlimit="22" stroke-width="0.71"/>
    <path id="Path_341" data-name="Path 341" d="M68.291,202.97A24.652,24.652,0,0,1,64.4,194a27.183,27.183,0,0,1,7.133,6.485A14.382,14.382,0,0,1,68.291,202.97Z" transform="translate(1157.433 187.309)" fill="none" stroke="#0d4a09" stroke-miterlimit="22" stroke-width="0.71"/>
    <path id="Path_342" data-name="Path 342" d="M72.8,205.019a26.339,26.339,0,0,1,1.945-9.619,28.369,28.369,0,0,1,2.162,9.4A17.474,17.474,0,0,1,72.8,205.019Z" transform="translate(1143.012 187.422)" fill="none" stroke="#0d4a09" stroke-miterlimit="22" stroke-width="0.71"/>
    <path id="Path_343" data-name="Path 343" d="M78.8,200.893a24.808,24.808,0,0,1,7.241-6.593,29.279,29.279,0,0,1-3.783,8.862A23.81,23.81,0,0,1,78.8,200.893Z" transform="translate(1127.419 187.334)" fill="none" stroke="#0d4a09" stroke-miterlimit="22" stroke-width="0.71"/>
    <path id="Path_344" data-name="Path 344" d="M81.4,191.982a24.723,24.723,0,0,1,9.727-.973,30.579,30.579,0,0,1-8.322,4.863A14.1,14.1,0,0,1,81.4,191.982Z" transform="translate(1119.536 187.058)" fill="none" stroke="#0d4a09" stroke-miterlimit="22" stroke-width="0.71"/>
    <path id="Path_345" data-name="Path 345" d="M82.581,182a24.119,24.119,0,0,1,8.43,5.08A28.014,28.014,0,0,1,81.5,186,12.921,12.921,0,0,1,82.581,182Z" transform="translate(1119.544 186.34)" fill="none" stroke="#0d4a09" stroke-miterlimit="22" stroke-width="0.71"/>
    <path id="Path_346" data-name="Path 346" d="M82.542,175.1a24.867,24.867,0,0,1,4,8.97,29.262,29.262,0,0,1-7.241-6.377A12.245,12.245,0,0,1,82.542,175.1Z" transform="translate(1126.381 185.783)" fill="none" stroke="#0d4a09" stroke-miterlimit="22" stroke-width="0.71"/>
    <path id="el46" d="M51.7,190.482A25.182,25.182,0,1,0,76.882,165.3,25.207,25.207,0,0,0,51.7,190.482Z" transform="translate(1140.378 184.991)" fill="none" stroke="#0d4a09" stroke-miterlimit="22" stroke-width="0.71"/>
    <path id="Path_347" data-name="Path 347" d="M321.1,199.2c1.621,1.945,3.134,3.134,5.728,1.3" transform="translate(625.797 187.729)" fill="none" stroke="#0d4a09" stroke-miterlimit="22" stroke-width="0.71"/>
    <path id="Path_348" data-name="Path 348" d="M269.2,194.8l10.159,4.863" transform="translate(729.083 187.374)" fill="none" stroke="#0d4a09" stroke-miterlimit="22" stroke-width="0.71"/>
    <path id="Path_349" data-name="Path 349" d="M55.519,196.8c-1.621,1.945-3.35,5.728-9.619,3.567" transform="translate(1193.192 187.536)" fill="none" stroke="#0d4a09" stroke-miterlimit="22" stroke-width="0.71"/>
    <path id="Path_350" data-name="Path 350" d="M108.54,120.1,108,138.905" transform="translate(1073.469 181.34)" fill="none" stroke="#0d4a09" stroke-miterlimit="22" stroke-width="0.71"/>
    <path id="el44" d="M19.457,148.442A212.087,212.087,0,0,1,1.3,165.843c10.267-6.917,21.507-9.079,31.775-5.512A44.934,44.934,0,0,1,61.5,189.62l40.637-5.944a21.827,21.827,0,0,1-.324-5.3c-.108-2.918.324-5.4-.648-8.538-.432-3.35-1.405-6.052-4.107-8.214a156.277,156.277,0,0,1-25.29-14.807c-3.675-.108-10.159-.324-17.509-.54.108,1.945,0,5.08-1.945,5.62-2.27.757-13.077.648-15.455-.108-1.621-.54-2.7-3.783-2.7-5.3v-.973c-5.188-.216-9.727-.324-12.861-.324A10.552,10.552,0,0,1,19.457,148.442Z" transform="translate(1194.777 183.368)" fill="rgba(175,173,173,0.7)" stroke="#0d4a09" stroke-miterlimit="22" stroke-width="0.71"/>
    <path id="Path_351" data-name="Path 351" d="M248.638,136.231h-6.052c-2.27,0-5.4,1.3-6.593,1.621l-.757.54m-11.78,5.944a64.806,64.806,0,0,1,8.538-6.7c3.458-2.053,6.917-4,10.592-5.836,3.242.216,5.08-.648,5.728,1.729a14.406,14.406,0,0,1,.324,3.026c0,2.486,1.945,4.647-.216,5.188h-2.27c-5.08,0-5.62-.865-8.214-1.513-1.513-.324-2.162-.54-2.7-1.945-2.7,1.945-5.3,3.783-8,5.62Z" transform="translate(808.297 182.285)" fill="none" stroke="#0d4a09" stroke-miterlimit="22" stroke-width="0.71"/>
    <path id="el310" d="M175.213,113.6h-4.647c-3.567,10.159-6.16,17.617-8.43,26.155-5.3,19.778-5.188,58.038-4.215,58.038,5.4,0,13.618-.108,18.914-.216-2.594-26.911,1.189-55.984,2.81-83.976h-9.187" transform="translate(949.205 180.815)" fill="none" stroke="#0d4a09" stroke-width="0.71"/>
    <path id="el411" d="M167.8,146.083c1.4.54,2.378,2.162,5.188,1.729a14.564,14.564,0,0,0-2.594-3.567c-1.081-1.189-2.27-2.7-3.458-2.81-16.536-1.837-30.694-4.647-43.339-9.511-16.536-6.377-30.694-15.239-46.906-18.589-17.941-3.675-40.637-4.755-64.414-4.431-.54.865-.432,1.729-.973,2.594,11.889.432,50.58-.54,72.52,14.7,6.593,3.891,21.832,14.7,19.13,21.94,16.644.54,33.936,1.081,50.58,1.621-.324-2.053,2.486-4.215,4.863-4.431,1.513-.108,7.241-.108,9.4.757Z" transform="translate(1113.121 180.431)" fill="none" stroke="#0d4a09" stroke-width="0.71"/>
    <path id="el49" d="M185.914,132.161a99.007,99.007,0,0,0-8.862,4.647,11.813,11.813,0,0,1-1.621.865,9.971,9.971,0,0,1-.865.54l-1.945,1.3c-.216.216-.865.648-1.513,1.189l-3.242,2.594c-1.513,1.3-2.918,2.378-3.134,2.7l-.108.108c-.648-.648-3.242-2.81-4.215-3.675a1.089,1.089,0,0,1-.108-.324h0a7.793,7.793,0,0,0,2.486-.54c4.431-1.513,5.836-2.7,8.862-4.539,34.693-18.589,46.906-27.56,87.327-28.424,0,0-.757,2.486-.757,2.594a152.96,152.96,0,0,0-35.666,4c-13.294,3.242-25.506,10.808-36.638,16.968Z" transform="translate(866.933 180.411)" fill="none" stroke="#0d4a09" stroke-width="0.71"/>
    <path id="el48" d="M104.4,200.635c-.54-2.486-.865-4.431-1.4-6.917,59.983-1.4,120.506-2.27,180.814-2.918-.324,3.783-.324,5.3-.432,8.538-61.712-1.621-122.019-1.837-178.976,1.3Z" transform="translate(903.948 187.051)" fill="none" stroke="#0d4a09" stroke-width="0.71"/>
    <path id="el414" d="M47.636,141.5c-2.7,0-2.053,3.35-2.053,5.4,0,1.513,1.081,4.755,2.7,5.3,2.27.757,13.077.973,15.455.108,2.053-.648,2.053-4.539,1.837-6.377a4.926,4.926,0,0,0-3.35-4C60.173,141.716,49.581,141.5,47.636,141.5Z" transform="translate(1183.458 183.069)" fill="none" stroke="#0d4a09" stroke-miterlimit="22" stroke-width="0.71"/>
    <path id="Path_352" data-name="Path 352" d="M103.1,190.8" transform="translate(1084.186 187.051)" fill="none" stroke="#0d4a09" stroke-miterlimit="22" stroke-width="0.71"/>
    <path id="Path_353" data-name="Path 353" d="M301.9,120.1" transform="translate(671.476 181.34)" fill="none" stroke="#0d4a09" stroke-miterlimit="22" stroke-width="0.71"/>
    <path id="Path_354" data-name="Path 354" d="M254.9,155.1" transform="translate(768.913 184.167)" fill="none" stroke="#0d4a09" stroke-miterlimit="22" stroke-width="0.71"/>
    <path id="Path_355" data-name="Path 355" d="M243.9,141.1" transform="translate(791.758 183.036)" fill="none" stroke="#0d4a09" stroke-miterlimit="22" stroke-width="0.71"/>
    <path id="Path_356" data-name="Path 356" d="M245.9,151.1" transform="translate(787.605 183.844)" fill="none" stroke="#0d4a09" stroke-miterlimit="22" stroke-width="0.71"/>
    <path id="Path_357" data-name="Path 357" d="M258.9,157.1" transform="translate(760.605 184.329)" fill="none" stroke="#0d4a09" stroke-miterlimit="22" stroke-width="0.71"/>
    <path id="Path_358" data-name="Path 358" d="M300.9,135.1" transform="translate(673.557 182.552)" fill="none" stroke="#0d4a09" stroke-miterlimit="22" stroke-width="0.71"/>
  </g>
</svg>
