<svg xmlns="http://www.w3.org/2000/svg" width="376.402" height="171.255" viewBox="0 0 376.402 171.255">
  <g id="Group_6" data-name="Group 6" transform="translate(-850.778 -465)">
    <g id="Group_5" data-name="Group 5" transform="translate(481 44)">
      <path id="Path_359" data-name="Path 359" d="M378.864,399.448c-.324,16.1-1.621,33.72-7.673,51.769-1.189,3.458-5.188,8-8.646,9.187-21.4,7.133-51.769,12.213-74.682,12.213-11.456-.216-21.94-1.513-33.4-1.729-19.238.108-38.8,1.513-58.146,1.621-15.671.108-31.018-1.189-46.689-1.189-18.049,0-36.1-1.729-54.039-1.729a196.408,196.408,0,0,1-42.907.432c-3.567-.432-9.4-3.458-12.537-4.107-7.674-2.053-12.753-4.107-16.752-8.646-2.378-2.81-3.567-5.62-5.188-8.754-1.081-2.162-1.945-6.377-2.594-7.133-1.3-1.189-3.783-1.729-4.972-5.944-2.594-11.564-5.08-23.237-7.133-34.585A6.57,6.57,0,0,1,3.4,398.8c2.486-11.456,4.755-22.7,7.349-34.369,1.189-4.215,3.675-4.755,4.972-5.944.648-.757,1.513-4.972,2.594-7.133,1.621-3.242,2.81-5.944,5.188-8.754,4-4.647,9.079-6.7,16.86-8.646,3.134-.648,8.862-3.675,12.537-4.107a189.917,189.917,0,0,1,42.907.54c18.049,0,36.1-1.513,54.039-1.513,15.671.108,31.018-1.081,46.689-.973,19.238.108,38.8,1.621,58.146,1.837,11.456-.216,21.94-1.4,33.4-1.621,22.912,0,53.174,5.3,74.573,12.429,3.458,1.189,7.457,5.728,8.646,9.187A152.132,152.132,0,0,1,378.864,399.448Z" transform="translate(366.947 109.125)" fill="none" stroke="#0d4a09" stroke-miterlimit="22" stroke-width="0.71"/>
      <path id="Path_360" data-name="Path 360" d="M378.221,398.384v.973c0,18.373-4.647,37.179-9.727,48.851-2.162,5.08-7.241,6.269-14.59,8.214-6.593,1.621-10.808,2.81-17.509,3.134-3.134.108-6.377-1.621-10.916-2.27-41.826-2.594-74.465-8-106.781-8.322-45.717-.432-67.116,7.782-110.887,11.456-21.183,0-41.286,1.729-62.793-.108-5.62-.432-12.321-3.675-16.86-7.457-3.026-2.486-4-6.052-6.485-8.106a57.149,57.149,0,0,0-8.106-6.16c-1.837-1.3-1.621-1.837-2.7-4-2.486-11.132-4.647-21.4-7.025-32.531-.216-1.189-.432-2.378-.54-3.675a21.541,21.541,0,0,1,.54-3.675c2.378-11.132,4.539-21.507,7.133-32.531,1.081-2.162.973-2.81,2.81-4a57.149,57.149,0,0,0,8.106-6.16c2.486-2.053,3.458-5.512,6.485-8.106,4.539-3.783,11.24-7.025,16.86-7.457,21.615-1.729,41.718.108,62.793.108,43.771,3.783,65.171,12.213,110.887,11.889,32.315-.216,64.955-5.512,106.781-8,4.431-.648,7.782-2.378,10.916-2.27,6.7.324,11.024,1.513,17.509,3.134,7.349,1.945,12.429,3.242,14.59,8.322C373.789,361.1,378.221,379.9,378.221,398.384Z" transform="translate(366.942 109.756)" fill="none" stroke="#0d4a09" stroke-miterlimit="22" stroke-width="0.71"/>
      <path id="el12" d="M152.574,398.889c0-18.481,1.189-34.585,4.539-50.364-14.807-2.81-29.073-4.215-43.771-6.917-3.458,0-7.349-.108-10.808-.108-4.215,7.782-6.917,15.779-10.375,23.669L88.916,383,88.7,398.889l.216,15.887,3.242,17.833c3.458,7.89,6.16,16,10.375,23.669,3.458,0,7.349-.108,10.808-.108l43.771-8.214A267.414,267.414,0,0,1,152.574,398.889Z" transform="translate(373.84 110.224)" fill="none" stroke="#0d4a09" stroke-miterlimit="22" stroke-width="0.71"/>
      <path id="Path_361" data-name="Path 361" d="M108.634,341.3c-4.215,7.782-6.917,15.779-10.375,23.669L95.016,382.8,94.8,398.689l.108,15.887,3.242,17.833c3.458,7.89,6.16,16,10.375,23.669" transform="translate(374.333 110.207)" fill="none" stroke="#0d4a09" stroke-miterlimit="22" stroke-width="0.71"/>
      <path id="Path_362" data-name="Path 362" d="M103.345,452.123,101.4,447.8" transform="translate(374.866 118.81)" fill="none" stroke="#0d4a09" stroke-miterlimit="22" stroke-width="0.71"/>
      <path id="Path_363" data-name="Path 363" d="M101.4,341.7l1.837-4" transform="translate(374.866 109.917)" fill="none" stroke="#0d4a09" stroke-miterlimit="22" stroke-width="0.71"/>
      <path id="Path_364" data-name="Path 364" d="M17.443,441.238c-4.972-14.266-7.133-27.019-9.943-42.907,2.7-15.887,4.972-28.857,9.943-43.231" transform="translate(367.282 111.322)" fill="none" stroke="#0d4a09" stroke-miterlimit="22" stroke-width="0.71"/>
      <path id="Path_365" data-name="Path 365" d="M11.8,431.2A487.977,487.977,0,0,0,96.533,454" transform="translate(367.629 117.469)" fill="none" stroke="#0d4a09" stroke-miterlimit="22" stroke-width="0.71"/>
      <path id="Path_366" data-name="Path 366" d="M11.8,360.2a478.542,478.542,0,0,1,84.733-22.8" transform="translate(367.629 109.892)" fill="none" stroke="#0d4a09" stroke-miterlimit="22" stroke-width="0.71"/>
      <path id="el11" d="M107.819,337.657c-21.183,0-41.177-1.729-62.793,0-5.62.432-12.321,3.675-16.86,7.457-3.026,2.486-4,5.944-6.485,8.106a57.149,57.149,0,0,1-8.106,6.16c-1.837,1.3-1.621,1.837-2.7,4-2.486,11.132-4.755,21.4-7.133,32.531-.216,1.189-.432,2.378-.54,3.675a21.541,21.541,0,0,0,.54,3.675c2.378,11.132,4.539,21.507,7.133,32.531,1.081,2.162.973,2.81,2.7,4a64.04,64.04,0,0,1,8.106,6.16c2.486,2.054,3.458,5.512,6.485,8.106,4.539,3.783,11.24,7.025,16.86,7.457,21.615,1.729,41.61,0,62.793,0l3.458-.324-1.945-4.323c-4.215-7.782-6.917-15.779-10.375-23.669l-3.242-17.833L95.5,399.478l.216-15.887,3.242-17.833c3.458-7.89,6.16-16,10.375-23.669l1.837-4A11.889,11.889,0,0,0,107.819,337.657Z" transform="translate(366.934 109.851)" fill="rgba(0,85,38,0.7)" stroke="#0d4a09" stroke-miterlimit="22" stroke-width="0.71"/>
      <path id="Path_367" data-name="Path 367" d="M7.6,395.132l87.651-.432" transform="translate(367.29 114.521)" fill="none" stroke="#0d4a09" stroke-miterlimit="22" stroke-width="0.71"/>
      <path id="Path_368" data-name="Path 368" d="M257.1,345.125c8.754,27.019,11.132,70.25,0,105.808,18.805.54,36.1,1.621,56.308,1.621,4.755-12.1,6.377-15.887,10.916-34.585,1.081-15.023.865-23.345,0-39.664-3.783-14.59-6.052-22.7-10.483-34.369C292.333,342.531,276.014,344.585,257.1,345.125Z" transform="translate(387.443 110.381)" fill="none" stroke="#0d4a09" stroke-miterlimit="22" stroke-width="0.71"/>
      <path id="el15" d="M315.054,349.223c-8.538-.108-17.4,0-26.587.216-8.646.216-17.184.648-25.29,1.081,8.106,23.885,9.295,63.225,0,95,17.184.432,34.477.973,51.661,1.4,1.729-4.431,3.567-9.295,5.188-14.59a140.355,140.355,0,0,0,3.675-14.807c.54-5.836.865-12.1.865-18.914,0-7.457-.324-14.482-.865-20.751q-1.621-6.971-3.891-14.59C318.3,358.3,316.675,353.654,315.054,349.223Z" transform="translate(387.934 110.844)" fill="none" stroke="#0d4a09" stroke-miterlimit="22" stroke-width="0.71"/>
      <path id="el13" d="M147.8,397.95c.432-16.428.54-30.8,4.539-49.716,39.989,3.242,68.737,4.539,113.589-3.134a178.05,178.05,0,0,1,7.565,52.85,179.041,179.041,0,0,1-7.457,52.958c-44.852-7.673-73.6-6.377-113.589-3.134C148.557,428.1,148.232,414.378,147.8,397.95Z" transform="translate(378.614 110.514)" fill="rgba(175,173,173,0.7)" stroke="#0d4a09" stroke-miterlimit="22" stroke-width="0.71"/>
      <path id="Path_369" data-name="Path 369" d="M344.64,438.5c-4.647,9.835-18.265,13.618-21.832,15.347-.108.108-.108.108-.108.216a.232.232,0,0,0,.216.216,5.892,5.892,0,0,0,3.35,0C333.292,452.442,342.8,445.957,344.64,438.5Z" transform="translate(392.742 118.059)" fill="none" stroke="#0d4a09" stroke-miterlimit="22" stroke-width="0.71"/>
      <path id="Path_370" data-name="Path 370" d="M337.928,446.894c-2.486,2.053-25.506,8.214-22.912,10.916a223.64,223.64,0,0,0,22.156-6.052c3.458-1.189,7.457-5.728,8.646-9.187.973-3.026,1.945-6.052,2.7-8.97C346.466,437.923,340.846,445.6,337.928,446.894Z" transform="translate(392.104 117.663)" fill="none" stroke="#0d4a09" stroke-miterlimit="22" stroke-width="0.71"/>
      <path id="Path_371" data-name="Path 371" d="M344.64,352.4c-4.647-9.835-18.265-13.618-21.832-15.347a.4.4,0,0,1-.108-.324.106.106,0,0,1,.108-.108,5.891,5.891,0,0,1,3.35,0C333.292,338.456,342.8,344.94,344.64,352.4Z" transform="translate(392.742 109.81)" fill="none" stroke="#0d4a09" stroke-miterlimit="22" stroke-width="0.71"/>
      <path id="Path_372" data-name="Path 372" d="M337.928,344.616c-2.486-2.053-25.506-8.214-22.912-10.916a223.665,223.665,0,0,1,22.156,6.052c3.458,1.189,7.457,5.728,8.646,9.187.973,3.026,1.945,6.052,2.7,8.97C346.466,353.478,340.846,345.8,337.928,344.616Z" transform="translate(392.104 109.594)" fill="none" stroke="#0d4a09" stroke-miterlimit="22" stroke-width="0.71"/>
      <path id="Path_373" data-name="Path 373" d="M195.777,444.1c-.324,4.215-4.107,15.023-6.377,18.914" transform="translate(381.974 118.511)" fill="none" stroke="#0d4a09" stroke-miterlimit="22" stroke-width="0.71"/>
      <path id="Path_374" data-name="Path 374" d="M103.2,451.9l4.755,8.538" transform="translate(375.012 119.141)" fill="none" stroke="#0d4a09" stroke-miterlimit="22" stroke-width="0.71"/>
      <path id="Path_375" data-name="Path 375" d="M202.839,443.943c-.973,6.7-3.35,12.753-6.485,19.13-18.914-.324-37.719-.54-56.633-.865l-31.667-1.081-4.755-8.646c31.667-1.513,64.522-11.456,99.647-10.375a10.484,10.484,0,0,0-.108,1.837Zm-3.458,12.213c-29.181.432-57.821-.216-87.435.432-2.053,0-3.134-1.081-1.081-1.945,22.48-3.35,41.5-6.917,65.279-9.511a245.26,245.26,0,0,1,26.7-1.3" transform="translate(375.02 118.343)" fill="none" stroke="#0d4a09" stroke-miterlimit="22" stroke-width="0.71"/>
      <path id="Path_376" data-name="Path 376" d="M166.91,460.321c-.216,0-.216-.973.324-.973h3.891c-.757.432.973.973,1.837.973.324,0,7.674.216,6.485-1.513,0-.108-.108-.108-.216-.108h4.863c1.837,1.081-.108,2.053-1.189,2.27C178.474,461.942,169.936,461.618,166.91,460.321Z" transform="translate(380.147 119.69)" fill="none" stroke="#0d4a09" stroke-miterlimit="22" stroke-width="0.71"/>
      <path id="Path_377" data-name="Path 377" d="M126.1,458.108l7.457-.108,6.485,14.266" transform="translate(376.861 119.634)" fill="none" stroke="#0d4a09" stroke-miterlimit="22" stroke-width="0.71"/>
      <path id="el07" d="M131.874,455.8h-6.268a3.969,3.969,0,0,0,.108,1.945c4.215,8.43,9.295,14.05,14.266,14.7h2.7l-5.62-14.266h-3.783l-.216-1.189C132.955,456.016,132.955,455.8,131.874,455.8Z" transform="translate(376.816 119.456)" fill="none" stroke="#0d4a09" stroke-miterlimit="22" stroke-width="0.71"/>
      <path id="Path_378" data-name="Path 378" d="M166.91,329.589c-.216,0-.216.973.324.973h3.891c-.757-.432.973-.973,1.837-.973.324,0,7.674-.216,6.485,1.513-.108,0-.108.108-.216.108h4.863c1.837-1.081-.108-2.053-1.189-2.27C178.474,327.967,169.936,328.4,166.91,329.589Z" transform="translate(380.147 109.166)" fill="none" stroke="#0d4a09" stroke-miterlimit="22" stroke-width="0.71"/>
      <path id="Path_379" data-name="Path 379" d="M126.1,332.55l7.457.108,6.485-14.158" transform="translate(376.861 108.366)" fill="none" stroke="#0d4a09" stroke-miterlimit="22" stroke-width="0.71"/>
      <path id="el06" d="M131.874,335.144h-6.268a3.969,3.969,0,0,1,.108-1.945c4.215-8.43,9.295-14.05,14.266-14.7h2.7l-5.62,14.266h-3.783l-.216,1.189C132.955,334.82,132.955,335.144,131.874,335.144Z" transform="translate(376.816 108.366)" fill="none" stroke="#0d4a09" stroke-miterlimit="22" stroke-width="0.71"/>
      <path id="Path_380" data-name="Path 380" d="M26.024,346.067c-2.594,3.675-5.62,7.673-7.565,8.646,2.378-4.431,4-9.295,7.565-13.4,4.323-4.972,9.835-6.7,18.157-6.485a21.655,21.655,0,0,0-2.81,1.081c-3.242,1.513-4.539,3.134-7.025,4.647C31.212,342.5,28.618,342.5,26.024,346.067Zm68.629-15.455a188.887,188.887,0,0,0-42.8-.54c-3.567.432-9.4,3.458-12.537,4.107-7.674,2.053-12.753,4.107-16.752,8.646-2.378,2.81-3.567,5.512-5.188,8.754-.973,1.945-1.837,5.62-2.378,6.809,2.162-1.513,4.323-3.35,5.836-4.647,2.486-2.053,3.458-5.512,6.485-8.106,4.539-3.783,11.24-7.025,16.86-7.457,17.833-1.513,34.693-.54,51.985-.108,3.567.108,7.133.108,10.7.108l3.242.324h.216l4.647-8.538c-6.7.324-13.51.54-20.319.648Z" transform="translate(367.887 109.223)" fill="none" stroke="#0d4a09" stroke-miterlimit="22" stroke-width="0.71"/>
      <path id="Path_381" data-name="Path 381" d="M26.024,445.929c-2.594-3.567-5.62-7.674-7.565-8.646,2.378,4.431,4,9.295,7.565,13.4,4.323,4.972,9.835,6.7,18.157,6.485a21.655,21.655,0,0,1-2.81-1.081c-3.242-1.513-4.539-3.134-7.025-4.647C31.212,449.5,28.618,449.5,26.024,445.929Zm68.629,15.455a188.888,188.888,0,0,1-42.8.432c-3.567-.324-9.4-3.458-12.537-4.107-7.674-2.053-12.753-4.107-16.752-8.646-2.378-2.81-3.567-5.512-5.188-8.754-.973-2.053-1.837-5.62-2.378-6.809,2.162,1.513,4.323,3.35,5.836,4.647,2.486,2.053,3.458,5.62,6.485,8.106,4.539,3.783,11.24,7.025,16.86,7.457,17.833,1.513,34.693.54,51.985.108,3.567-.108,7.133-.108,10.7-.108l3.242-.324h.216l4.647,8.538c-6.809-.324-13.618-.54-20.319-.54Z" transform="translate(367.887 117.655)" fill="none" stroke="#0d4a09" stroke-miterlimit="22" stroke-width="0.71"/>
      <path id="Path_382" data-name="Path 382" d="M286.926,329c-2.27,3.35-8.106,7.349-14.482,10.375A65.739,65.739,0,0,1,255.8,345c15.131-1.513,31.234-3.026,49.067-4.215h.324c4.323-.757,7.565-2.378,10.592-2.27,6.7.324,11.024,1.513,17.509,3.134,2.27.648,4.323,1.189,6.16,1.729-6.917-2.7-21.291-7.025-19.67-9.187A309.848,309.848,0,0,0,286.926,329Z" transform="translate(387.338 109.214)" fill="none" stroke="#0d4a09" stroke-miterlimit="22" stroke-width="0.71"/>
      <path id="Path_383" data-name="Path 383" d="M7.275,394.986c0,1.4-.865,2.486-1.837,2.486S3.6,396.391,3.6,394.986s.865-2.486,1.837-2.486S7.275,393.689,7.275,394.986Z" transform="translate(366.967 114.343)" fill="none" stroke="#0d4a09" stroke-miterlimit="22" stroke-width="0.71"/>
      <path id="el14" d="M170.221,437.093c-1.189-14.59-1.621-27.56-1.621-40.1s.432-25.506,1.621-40.1c12.969,0,24.75,1.081,37.611,1.081A336.5,336.5,0,0,1,209.453,397a295.382,295.382,0,0,1-1.621,39.124C194.971,436.121,183.19,437.093,170.221,437.093Z" transform="translate(380.294 111.468)" fill="none" stroke="#0d4a09" stroke-miterlimit="22" stroke-width="0.71"/>
      <path id="Path_384" data-name="Path 384" d="M198.9,334.632c-29.181-.432-57.821.216-87.435-.432-2.053,0-3.134,1.081-1.081,1.945,35.774,4.431,56.741,10.051,91.974,10.808" transform="translate(375.503 109.634)" fill="none" stroke="#0d4a09" stroke-miterlimit="22" stroke-width="0.71"/>
      <path id="Path_385" data-name="Path 385" d="M196.214,328.1l-56.633.865-31.667,1.081-4.215,7.674c21.4,1.081,43.231,6.052,65.711,9.078a317.109,317.109,0,0,0,33.612,2.162C202.483,342.258,199.24,334.152,196.214,328.1Z" transform="translate(375.052 109.141)" fill="none" stroke="#0d4a09" stroke-miterlimit="22" stroke-width="0.71"/>
      <path id="Path_386" data-name="Path 386" d="M192.3,334.5c29.829.324,51.445,1.621,81.166.973.973,0,4.863-.432,5.4,1.081,1.513,3.783-51.229,9.4-55.66,9.619-9.079.54-18.481.648-27.56.648" transform="translate(382.209 109.658)" fill="none" stroke="#0d4a09" stroke-miterlimit="22" stroke-width="0.71"/>
      <path id="Path_387" data-name="Path 387" d="M280.077,338.267c6.593-3.567,11.24-7.565,12.213-9.187-6.809-.648-13.51-1.081-19.562-1.081-11.456.216-21.94,1.513-33.4,1.729-16.536-.108-33.4-1.189-49.932-1.621,1.189,2.378,2.27,4.647,3.134,6.917a44.76,44.76,0,0,1,3.458,13.942h7.673c18.481-.108,37.179-1.945,57.605-4A63.185,63.185,0,0,0,280.077,338.267Z" transform="translate(381.974 109.133)" fill="none" stroke="#0d4a09" stroke-miterlimit="22" stroke-width="0.71"/>
      <path id="Path_388" data-name="Path 388" d="M192.3,455.921c29.829-.216,51.445-1.621,81.166-.973.973,0,4.863.432,5.4-1.081,1.513-3.783-51.229-9.4-55.66-9.619-9.079-.54-18.481-.648-27.56-.648" transform="translate(382.209 118.471)" fill="none" stroke="#0d4a09" stroke-miterlimit="22" stroke-width="0.71"/>
      <path id="Path_389" data-name="Path 389" d="M280.077,452.9c6.593,3.567,11.24,7.457,12.213,9.187-6.809.648-13.51,1.081-19.562,1.081-11.456-.216-21.94-1.513-33.4-1.729-16.536.108-33.4,1.189-49.932,1.621,1.189-2.378,2.27-4.647,3.134-6.917a44.029,44.029,0,0,0,3.458-13.942h7.673c18.481.108,37.179,1.945,57.605,4A63.185,63.185,0,0,1,280.077,452.9Z" transform="translate(381.974 118.358)" fill="none" stroke="#0d4a09" stroke-miterlimit="22" stroke-width="0.71"/>
      <path id="Path_390" data-name="Path 390" d="M236.51,459.421c-.216,0-.216-.973.324-.973h3.891c-.757.432.973.973,1.837.973.324,0,7.673.216,6.485-1.513,0-.108-.108-.108-.216-.108h4.863c1.729,1.081-.108,2.054-1.189,2.27C248.074,461.042,239.644,460.718,236.51,459.421Z" transform="translate(385.769 119.618)" fill="none" stroke="#0d4a09" stroke-miterlimit="22" stroke-width="0.71"/>
      <path id="Path_391" data-name="Path 391" d="M236.51,330.491c-.216,0-.216.973.324.973h3.891c-.757-.432.973-.973,1.837-.973.324,0,7.673-.216,6.485,1.513a.377.377,0,0,1-.216.108h4.863c1.729-1.081-.108-2.053-1.189-2.27C248.074,328.87,239.644,329.194,236.51,330.491Z" transform="translate(385.769 109.236)" fill="none" stroke="#0d4a09" stroke-miterlimit="22" stroke-width="0.71"/>
      <path id="Path_392" data-name="Path 392" d="M286.926,461.9c-2.27-3.35-8.106-7.349-14.482-10.375A65.738,65.738,0,0,0,255.8,445.9c15.131,1.513,31.234,3.026,49.067,4.107h.324c4.323.757,7.565,2.378,10.592,2.27,6.7-.324,11.024-1.513,17.509-3.134,2.27-.648,4.323-1.189,6.16-1.729-6.917,2.7-21.291,7.025-19.67,9.187A310.225,310.225,0,0,1,286.926,461.9Z" transform="translate(387.338 118.656)" fill="none" stroke="#0d4a09" stroke-miterlimit="22" stroke-width="0.71"/>
      <path id="Path_393" data-name="Path 393" d="M25.765,345.641c-2.594,3.675-5.62,7.673-7.565,8.646,2.378-4.431,4-9.295,7.565-13.4,4.323-4.972,9.835-6.7,18.157-6.485-5.62,1.837-6.7,3.891-9.943,5.836S28.359,342.075,25.765,345.641Z" transform="translate(368.146 109.649)" fill="none" stroke="#0d4a09" stroke-miterlimit="22" stroke-width="0.71"/>
      <path id="Path_394" data-name="Path 394" d="M25.668,344.471a51.57,51.57,0,0,0-6.268,8.214c2.378-4.431,3.242-6.377,6.917-10.375,3.242-3.675,9.727-6.917,14.7-6.809a44.157,44.157,0,0,0-8.97,3.891A29.316,29.316,0,0,0,25.668,344.471Z" transform="translate(368.243 109.739)" fill="none" stroke="#0d4a09" stroke-miterlimit="22" stroke-width="0.71"/>
      <path id="Path_395" data-name="Path 395" d="M25.765,445.646c-2.594-3.567-5.62-7.674-7.565-8.646,2.378,4.431,4,9.295,7.565,13.4,4.323,4.972,9.835,6.7,18.157,6.485-5.62-1.837-6.7-3.891-9.943-5.836S28.359,449.213,25.765,445.646Z" transform="translate(368.146 117.938)" fill="none" stroke="#0d4a09" stroke-miterlimit="22" stroke-width="0.71"/>
      <path id="Path_396" data-name="Path 396" d="M25.668,446.614A51.566,51.566,0,0,1,19.4,438.4c2.378,4.431,3.242,6.377,6.917,10.375,3.242,3.675,9.727,6.917,14.7,6.809a44.155,44.155,0,0,1-8.97-3.891A29.315,29.315,0,0,1,25.668,446.614Z" transform="translate(368.243 118.051)" fill="none" stroke="#0d4a09" stroke-miterlimit="22" stroke-width="0.71"/>
      <path id="el16" d="M321.888,418.534c-4.539,18.7-6.16,22.48-10.916,34.585-7.782,0-15.131-.216-22.372-.432v.432l16.1,4.323c3.35.865,5.944,1.945,8.538,1.837,6.7-.324,11.024-1.513,17.509-3.134,7.349-1.945,12.429-3.242,14.7-8.214,5.08-11.564,9.727-30.37,9.727-48.851v-.973c0-18.373-4.539-37.287-9.511-48.851-2.162-5.08-7.241-6.268-14.59-8.322-6.593-1.621-10.808-2.81-17.509-3.134-3.026-.108-6.268,1.513-10.592,2.27l-14.05,3.891c7.133-.216,14.59-.108,22.7.432,4.431,11.672,6.7,19.778,10.484,34.369C322.861,395.3,322.969,403.511,321.888,418.534Z" transform="translate(389.987 109.924)" fill="rgba(0,85,38,0.7)" stroke="#0d4a09" stroke-miterlimit="22" stroke-width="0.71"/>
    </g>
    <rect id="Rectangle_1" data-name="Rectangle 1" width="81" height="171" rx="26" transform="translate(951 465)" fill="#3dcd46" opacity="0.54"/>
  </g>
</svg>
