<svg xmlns="http://www.w3.org/2000/svg" width="375.555" height="112.426" viewBox="0 0 375.555 112.426">
  <g id="Group_3" data-name="Group 3" transform="translate(-923.374 -288.646)">
    <path id="Path_298" data-name="Path 298" d="M326.306,190.353A23.453,23.453,0,1,1,302.853,166.9,23.431,23.431,0,0,1,326.306,190.353Z" transform="translate(945.244 185.12)" fill="rgba(175,173,173,0.7)" stroke="#0d4a09" stroke-miterlimit="22" stroke-width="0.71"/>
    <path id="Path_299" data-name="Path 299" d="M302.546,170.8a19.346,19.346,0,1,0,19.346,19.346,19.849,19.849,0,0,0-5.62-13.726A19.381,19.381,0,0,0,302.546,170.8Z" transform="translate(945.551 185.435)" fill="none" stroke="#0d4a09" stroke-miterlimit="22" stroke-width="0.71"/>
    <path id="Path_300" data-name="Path 300" d="M301.229,187.1a1.729,1.729,0,1,0,1.729,1.729A1.857,1.857,0,0,0,301.229,187.1Z" transform="translate(946.868 186.752)" fill="none" stroke="#0d4a09" stroke-miterlimit="22" stroke-width="0.71"/>
    <path id="Path_301" data-name="Path 301" d="M298.8,173.112a24.215,24.215,0,0,0,2.378,9.511,28.472,28.472,0,0,0,1.729-9.511A13.08,13.08,0,0,0,298.8,173.112Z" transform="translate(946.811 185.609)" fill="none" stroke="#0d4a09" stroke-miterlimit="22" stroke-width="0.71"/>
    <path id="Path_302" data-name="Path 302" d="M290.2,177.486a24.318,24.318,0,0,0,7.457,6.268A27.313,27.313,0,0,0,293.442,175,36.749,36.749,0,0,0,290.2,177.486Z" transform="translate(946.116 185.775)" fill="none" stroke="#0d4a09" stroke-miterlimit="22" stroke-width="0.71"/>
    <path id="Path_303" data-name="Path 303" d="M285.5,186.491a25.1,25.1,0,0,0,9.835.54A29.229,29.229,0,0,0,286.8,182.6,20.544,20.544,0,0,0,285.5,186.491Z" transform="translate(945.737 186.389)" fill="none" stroke="#0d4a09" stroke-miterlimit="22" stroke-width="0.71"/>
    <path id="Path_304" data-name="Path 304" d="M287.2,196.2a25.824,25.824,0,0,0,8.214-5.4,28.277,28.277,0,0,0-9.511,1.513A11.8,11.8,0,0,0,287.2,196.2Z" transform="translate(945.769 187.051)" fill="none" stroke="#0d4a09" stroke-miterlimit="22" stroke-width="0.71"/>
    <path id="Path_305" data-name="Path 305" d="M293.642,202.97a24.652,24.652,0,0,0,3.891-8.97,27.184,27.184,0,0,0-7.133,6.485A14.382,14.382,0,0,0,293.642,202.97Z" transform="translate(946.133 187.309)" fill="none" stroke="#0d4a09" stroke-miterlimit="22" stroke-width="0.71"/>
    <path id="Path_306" data-name="Path 306" d="M302.907,205.019a26.339,26.339,0,0,0-1.945-9.619,28.37,28.37,0,0,0-2.162,9.4A17.17,17.17,0,0,0,302.907,205.019Z" transform="translate(946.811 187.422)" fill="none" stroke="#0d4a09" stroke-miterlimit="22" stroke-width="0.71"/>
    <path id="Path_307" data-name="Path 307" d="M311.941,200.893A23.4,23.4,0,0,0,304.7,194.3a29.279,29.279,0,0,0,3.783,8.862A15.961,15.961,0,0,0,311.941,200.893Z" transform="translate(947.288 187.334)" fill="none" stroke="#0d4a09" stroke-miterlimit="22" stroke-width="0.71"/>
    <path id="Path_308" data-name="Path 308" d="M317.127,191.982a24.723,24.723,0,0,0-9.727-.973,30.579,30.579,0,0,0,8.322,4.863A18.753,18.753,0,0,0,317.127,191.982Z" transform="translate(947.506 187.058)" fill="none" stroke="#0d4a09" stroke-miterlimit="22" stroke-width="0.71"/>
    <path id="Path_309" data-name="Path 309" d="M315.93,182a24.119,24.119,0,0,0-8.43,5.08A28.959,28.959,0,0,0,317.119,186,17.047,17.047,0,0,0,315.93,182Z" transform="translate(947.514 186.34)" fill="none" stroke="#0d4a09" stroke-miterlimit="22" stroke-width="0.71"/>
    <path id="Path_310" data-name="Path 310" d="M309.3,175.1a24.867,24.867,0,0,0-4,8.97,29.261,29.261,0,0,0,7.241-6.377A12.245,12.245,0,0,0,309.3,175.1Z" transform="translate(947.336 185.783)" fill="none" stroke="#0d4a09" stroke-miterlimit="22" stroke-width="0.71"/>
    <path id="el45" d="M308.711,166.052a25.153,25.153,0,1,1-30.262,18.7A25.235,25.235,0,0,1,308.711,166.052Z" transform="translate(945.114 184.996)" fill="none" stroke="#0d4a09" stroke-miterlimit="22" stroke-width="0.71"/>
    <path id="el45-2" data-name="el45" d="M308.711,166.052a25.153,25.153,0,1,1-30.262,18.7A25.235,25.235,0,0,1,308.711,166.052Z" transform="translate(945.114 184.996)" fill="none" stroke="#0d4a09" stroke-miterlimit="22" stroke-width="0.71"/>
    <path id="Path_313" data-name="Path 313" d="M337.848,159.017a18.333,18.333,0,0,0-4.863-.108c-2.053.216-.865,1.189-6.485.54" transform="translate(949.049 184.465)" fill="none" stroke="#0d4a09" stroke-miterlimit="22" stroke-width="0.71"/>
    <path id="Path_314" data-name="Path 314" d="M338.115,159.293c-1.3-1.4-14.59-4.215-14.7-3.891-1.3,2.486,3.35,4,5.3,5.62.973.865,10.7,8.538,12.861,10.267C341.79,167.939,338.115,159.293,338.115,159.293Z" transform="translate(948.781 184.19)" fill="none" stroke="#0d4a09" stroke-miterlimit="22" stroke-width="0.71"/>
    <path id="Path_318" data-name="Path 318" d="M354.416,206.51h-1.729c7.457-24.966-8.97-41.718-25.722-41.069-30.8,1.3-32.964,27.884-36.1,41.178-61.712-3.35-120.4-1.513-179.084-1.189.216-33.072-20.967-39.34-31.342-39.34-12.753,0-34.693,8.646-30.91,37.719l-39.989-8c-.973-.865-9.835-.757-8.43-8.106a52.2,52.2,0,0,0,.432-10.051c0-2.594.757-4,.757-5.188a11.737,11.737,0,0,1,4.539-8.322v-.757c-.432-3.567.648-4.972,2.378-6.377a7.539,7.539,0,0,1,1.729-4.972c1.081-5.08,3.026-6.7,5.728-9.727,1.081-1.189,2.594-.973,4.755-1.3,8.214-.973,23.345-3.458,31.342-5.728,4.431-1.3,7.673-3.026,11.78-4.539,15.239-5.188,27.019-13.618,43.771-17.509.432-.108-.108-4,.324-4,1.837-.108,1.837,3.567,2.27,3.458a74.987,74.987,0,0,1,9.727-1.3c17.292-.865,35.557-3.242,51.769-2.594s31.018,1.081,45.068,6.7a310.93,310.93,0,0,1,45.933,23.345c3.026,1.945,4,2.7,8.97,3.458,8,1.189,59.875,5.188,83.328,12.537,7.349,2.27,12.321,4.215,12.213,6.485a33.321,33.321,0,0,1,3.567,13.185c1.081,2.162,2.7,4.972,3.675,7.241,1.189,1.621.648,2.378,0,3.026a12.664,12.664,0,0,0-1.729,1.621,2.061,2.061,0,0,0-.216,1.4,3.79,3.79,0,0,0,.648,1.513,2.33,2.33,0,0,1,.216,3.134c-1.729,2.486-3.567,1.945-.324,5.08.865.757,2.162,3.458,0,4.431A66.425,66.425,0,0,1,354.416,206.51Z" transform="translate(922.753 180.419)" fill="none" stroke="#0d4a09" stroke-miterlimit="22" stroke-width="0.71"/>
    <path id="Path_319" data-name="Path 319" d="M342.194,154.89c-23.777-8.862-60.091-11.672-86.894-14.59,1.4,3.134,5.944,5.512,17.292,8l61.28,5.4c.108.324.865.108,1.081,1.4,1.3.865,4.863.973,6.052,1.945.757.648,5.188,1.621,6.268,1.621C346.625,155.863,341.654,154.674,342.194,154.89Z" transform="translate(943.297 182.972)" fill="none" stroke="#0d4a09" stroke-miterlimit="22" stroke-width="0.71"/>
    <path id="el41" d="M252.378,151.6c54.8,1.4,75.87,4.215,76.951,4.107-.432,1.081-.108,1.945,1.189,2.918,4.539,3.567,9.511,6.809,13.834,10.484.865.757,2.27,1.945,3.242,2.81l5.836,11.024c-.865.432.108,2.162.432,2.7-4,2.918-8,4.755-10.267,11.132a18.511,18.511,0,0,1-3.458.108c0-24.534-16.212-37.611-32.531-38.151-18.7-.648-38.8,14.05-44.42,37.719-7.457-.216-5.728-.108-13.185-.324C253.026,179.052,253.026,166.515,252.378,151.6Z" transform="translate(942.869 183.885)" fill="rgba(175,173,173,0.7)" stroke="#0d4a09" stroke-miterlimit="22" stroke-width="0.71"/>
    <path id="el42" d="M171.043,189.556c1.405-26.263-4.323-52.526-9.943-78.356a166.8,166.8,0,0,1,37.287,4.539c13.294,3.242,25.614,11.24,36.962,17.725a112.079,112.079,0,0,1,13.51,7.782c1.081.865,7.457,6.16,8,6.809.54.54,2.7,5.188,2.7,6.485a152.247,152.247,0,0,1-2.486,44.852c-29.073-.54-56.308-.865-87.327-1.513C170.287,195.284,170.719,192.474,171.043,189.556Z" transform="translate(935.688 180.621)" fill="rgba(0,85,38,0.7)" stroke="#0d4a09" stroke-miterlimit="22" stroke-width="0.71"/>
    <path id="el412" d="M250.217,145.591l-11.456-.865-64.846-4.107c-.108-3.783-5.512-19.238-8.214-27.019h2.918c23.561,1.405,40.1,4.647,62.145,19.886" transform="translate(936.06 180.815)" fill="none" stroke="#0d4a09" stroke-miterlimit="22" stroke-width="0.71"/>
    <path id="Path_320" data-name="Path 320" d="M76.5,140l97.7.432c29.613.973,59.767,4.539,89.488,5.512" transform="translate(928.855 182.948)" fill="none" stroke="#0d4a09" stroke-miterlimit="22" stroke-width="0.71"/>
    <path id="el43" d="M76.668,142.211c7.349-12.537,35.233-26.911,51.661-28.316,13.185-1.189,26.263-2.7,39.664-2.594,6.917,27.668,10.051,48.635,10.051,75.762a54.018,54.018,0,0,1-1.4,11.024l-66.684-.865c0-8.646-5.188-20.21-11.24-26.263-3.026-3.026-16-13.4-21.4-20.643A7.393,7.393,0,0,1,76.668,142.211Z" transform="translate(928.795 180.629)" fill="rgba(0,85,38,0.7)" stroke="#0d4a09" stroke-miterlimit="22" stroke-width="0.71"/>
    <path id="el413" d="M82.1,139.648c23.237-23.777,48.635-26.371,81.49-26.047l1.189,26.479Z" transform="translate(929.307 180.813)" fill="none" stroke="#0d4a09" stroke-miterlimit="22" stroke-width="0.71"/>
    <path id="Path_322" data-name="Path 322" d="M256.99,152l-64.09-5.3" transform="translate(938.257 183.489)" fill="none" stroke="#0d4a09" stroke-miterlimit="22" stroke-width="0.71"/>
    <path id="Path_323" data-name="Path 323" d="M193.817,147.748c-2.162.54-14.266-.108-17.617-.648" transform="translate(936.908 183.521)" fill="none" stroke="#0d4a09" stroke-miterlimit="22" stroke-width="0.71"/>
    <path id="el415" d="M191.443,145.027c1.837.216,4.431,2.378.973,4-.757.324-3.567,1.3-3.567,1.3,1.621-2.594-8.214-3.458-7.565,0-4.755,0-8-5.512-1.4-5.512A69.111,69.111,0,0,1,191.443,145.027Z" transform="translate(936.905 183.325)" fill="none" stroke="#0d4a09" stroke-miterlimit="22" stroke-width="0.71"/>
    <path id="Path_324" data-name="Path 324" d="M104.217,145.848c-2.162.54-14.266-.108-17.617-.648" transform="translate(929.671 183.368)" fill="none" stroke="#0d4a09" stroke-miterlimit="22" stroke-width="0.71"/>
    <path id="el416" d="M101.843,143.125c1.837.216,4.431,2.378.973,4-.757.324-3.567,1.3-3.567,1.3,1.621-2.594-8.214-3.458-7.565,0-4.755,0-8-5.512-1.405-5.512A82.94,82.94,0,0,1,101.843,143.125Z" transform="translate(929.667 183.173)" fill="none" stroke="#0d4a09" stroke-miterlimit="22" stroke-width="0.71"/>
    <path id="Path_325" data-name="Path 325" d="M181.248,145.781,103,144.7" transform="translate(930.996 183.327)" fill="none" stroke="#0d4a09" stroke-miterlimit="22" stroke-width="0.71"/>
    <path id="Path_326" data-name="Path 326" d="M88.3,145.2l-24.1.432" transform="translate(927.861 183.368)" fill="none" stroke="#0d4a09" stroke-miterlimit="22" stroke-width="0.71"/>
    <path id="Path_327" data-name="Path 327" d="M46.909,146.6l-17.509.324" transform="translate(925.051 183.481)" fill="none" stroke="#0d4a09" stroke-miterlimit="22" stroke-width="0.71"/>
    <path id="Path_328" data-name="Path 328" d="M8.77,154.273c-2.27,1.837-2.486,3.242-2.162,7.025,0,.216,0,0-.108.216,6.377-1.837,18.265-10.159,24.209-13.726,1.945-1.189-1.081-5.188-4.431-5.188-2.27,0-8.43-.108-9.943,1.081-2.918,2.162-4.215,1.3-4.215,1.3a4.966,4.966,0,0,0-.757,1.729,9.347,9.347,0,0,0-.648,2.486C10.608,149.625,8.77,150.922,8.77,154.273Z" transform="translate(923.2 183.157)" fill="none" stroke="#0d4a09" stroke-miterlimit="22" stroke-width="0.71"/>
    <path id="Path_329" data-name="Path 329" d="M14.015,148.8l9.727.324c0,1.513-3.458,3.458-4.755,4H9.8c.432-2.378.648-3.675,3.458-4.323Z" transform="translate(923.467 183.658)" fill="none" stroke="#0d4a09" stroke-miterlimit="22" stroke-width="0.71"/>
    <path id="Path_330" data-name="Path 330" d="M7.423,159.188,17.042,154H9.585a4.212,4.212,0,0,0-2.378,4.647A.826.826,0,0,0,7.423,159.188Z" transform="translate(923.25 184.078)" fill="none" stroke="#0d4a09" stroke-miterlimit="22" stroke-width="0.71"/>
    <path id="Path_331" data-name="Path 331" d="M26.59,145.3c1.081-.108,2.7,1.189,1.513,2.378l-.648.324h.108L12,148.327a2.906,2.906,0,0,1,2.918-2.918L26.59,145.3Z" transform="translate(923.645 183.375)" fill="none" stroke="#0d4a09" stroke-miterlimit="22" stroke-width="0.71"/>
    <path id="Path_332" data-name="Path 332" d="M16.7,144.695c0-1.729,2.162-1.081,3.567-1.189a60.636,60.636,0,0,1,6.268,0c1.3.432,3.891,2.053,2.594,3.35-.216.324-.432-.865-.973-1.4-1.189-1.405-4.755-1.081-6.593-1.081H17.024v.324" transform="translate(924.025 183.224)" fill="none" stroke="#0d4a09" stroke-miterlimit="22" stroke-width="0.71"/>
    <path id="Path_333" data-name="Path 333" d="M49.286,187.925,1.3,180.9" transform="translate(922.781 186.251)" fill="none" stroke="#0d4a09" stroke-miterlimit="22" stroke-width="0.71"/>
    <path id="Path_334" data-name="Path 334" d="M76.854,166.9A23.508,23.508,0,1,0,93.5,173.817,23.662,23.662,0,0,0,76.854,166.9Z" transform="translate(926.988 185.12)" fill="rgba(175,173,173,0.7)" stroke="#0d4a09" stroke-miterlimit="22" stroke-width="0.71"/>
    <path id="Path_335" data-name="Path 335" d="M76.542,170.8a19.322,19.322,0,1,0,16.1,30.046,19.273,19.273,0,0,0-16.1-30.046Z" transform="translate(927.3 185.435)" fill="none" stroke="#0d4a09" stroke-miterlimit="22" stroke-width="0.71"/>
    <path id="Path_336" data-name="Path 336" d="M75.229,187.1a1.729,1.729,0,1,0,1.729,1.729,1.86,1.86,0,0,0-1.729-1.729Z" transform="translate(928.613 186.752)" fill="none" stroke="#0d4a09" stroke-miterlimit="22" stroke-width="0.71"/>
    <path id="Path_337" data-name="Path 337" d="M72.8,173.112a26.794,26.794,0,0,0,2.378,9.511,28.472,28.472,0,0,0,1.729-9.511A13.08,13.08,0,0,0,72.8,173.112Z" transform="translate(928.556 185.609)" fill="none" stroke="#0d4a09" stroke-miterlimit="22" stroke-width="0.71"/>
    <path id="Path_338" data-name="Path 338" d="M64.2,177.486a23.511,23.511,0,0,0,7.565,6.268A27.313,27.313,0,0,0,67.55,175,26.939,26.939,0,0,0,64.2,177.486Z" transform="translate(927.861 185.775)" fill="none" stroke="#0d4a09" stroke-miterlimit="22" stroke-width="0.71"/>
    <path id="Path_339" data-name="Path 339" d="M59.6,186.491a25.1,25.1,0,0,0,9.835.54A29.229,29.229,0,0,0,60.9,182.6,11.806,11.806,0,0,0,59.6,186.491Z" transform="translate(927.49 186.389)" fill="none" stroke="#0d4a09" stroke-miterlimit="22" stroke-width="0.71"/>
    <path id="Path_340" data-name="Path 340" d="M61.2,196.2a25.824,25.824,0,0,0,8.214-5.4,28.277,28.277,0,0,0-9.511,1.513A14.979,14.979,0,0,0,61.2,196.2Z" transform="translate(927.514 187.051)" fill="none" stroke="#0d4a09" stroke-miterlimit="22" stroke-width="0.71"/>
    <path id="Path_341" data-name="Path 341" d="M67.642,202.97A24.652,24.652,0,0,0,71.533,194a27.183,27.183,0,0,0-7.133,6.485A14.382,14.382,0,0,0,67.642,202.97Z" transform="translate(927.878 187.309)" fill="none" stroke="#0d4a09" stroke-miterlimit="22" stroke-width="0.71"/>
    <path id="Path_342" data-name="Path 342" d="M76.907,205.019a26.339,26.339,0,0,0-1.945-9.619,28.369,28.369,0,0,0-2.162,9.4A17.474,17.474,0,0,0,76.907,205.019Z" transform="translate(928.556 187.422)" fill="none" stroke="#0d4a09" stroke-miterlimit="22" stroke-width="0.71"/>
    <path id="Path_343" data-name="Path 343" d="M86.041,200.893A24.808,24.808,0,0,0,78.8,194.3a29.279,29.279,0,0,0,3.783,8.862A23.81,23.81,0,0,0,86.041,200.893Z" transform="translate(929.041 187.334)" fill="none" stroke="#0d4a09" stroke-miterlimit="22" stroke-width="0.71"/>
    <path id="Path_344" data-name="Path 344" d="M91.127,191.982a24.723,24.723,0,0,0-9.727-.973,30.579,30.579,0,0,0,8.322,4.863A14.1,14.1,0,0,0,91.127,191.982Z" transform="translate(929.251 187.058)" fill="none" stroke="#0d4a09" stroke-miterlimit="22" stroke-width="0.71"/>
    <path id="Path_345" data-name="Path 345" d="M89.93,182a24.119,24.119,0,0,0-8.43,5.08A28.014,28.014,0,0,0,91.011,186,12.921,12.921,0,0,0,89.93,182Z" transform="translate(929.259 186.34)" fill="none" stroke="#0d4a09" stroke-miterlimit="22" stroke-width="0.71"/>
    <path id="Path_346" data-name="Path 346" d="M83.3,175.1a24.867,24.867,0,0,0-4,8.97,29.262,29.262,0,0,0,7.241-6.377A12.245,12.245,0,0,0,83.3,175.1Z" transform="translate(929.081 185.783)" fill="none" stroke="#0d4a09" stroke-miterlimit="22" stroke-width="0.71"/>
    <path id="el46" d="M102.064,190.482A25.182,25.182,0,1,1,76.882,165.3,25.207,25.207,0,0,1,102.064,190.482Z" transform="translate(926.852 184.991)" fill="none" stroke="#0d4a09" stroke-miterlimit="22" stroke-width="0.71"/>
    <path id="Path_347" data-name="Path 347" d="M326.828,199.2c-1.621,1.945-3.134,3.134-5.728,1.3" transform="translate(948.612 187.729)" fill="none" stroke="#0d4a09" stroke-miterlimit="22" stroke-width="0.71"/>
    <path id="Path_348" data-name="Path 348" d="M279.359,194.8,269.2,199.663" transform="translate(944.42 187.374)" fill="none" stroke="#0d4a09" stroke-miterlimit="22" stroke-width="0.71"/>
    <path id="Path_349" data-name="Path 349" d="M45.9,196.8c1.621,1.945,3.35,5.728,9.619,3.567" transform="translate(926.383 187.536)" fill="none" stroke="#0d4a09" stroke-miterlimit="22" stroke-width="0.71"/>
    <path id="Path_350" data-name="Path 350" d="M108,120.1l.54,18.805" transform="translate(931.399 181.34)" fill="none" stroke="#0d4a09" stroke-miterlimit="22" stroke-width="0.71"/>
    <path id="el44" d="M83.979,148.442a212.087,212.087,0,0,0,18.157,17.4c-10.267-6.917-21.507-9.079-31.775-5.512A44.934,44.934,0,0,0,41.937,189.62L1.3,183.676a21.827,21.827,0,0,0,.324-5.3c.108-2.918-.324-5.4.648-8.538.432-3.35,1.405-6.052,4.107-8.214a156.276,156.276,0,0,0,25.29-14.807c3.675-.108,10.159-.324,17.509-.54-.108,1.945,0,5.08,1.945,5.62,2.27.757,13.077.648,15.455-.108,1.621-.54,2.7-3.783,2.7-5.3v-.973c5.188-.216,9.727-.324,12.861-.324A10.552,10.552,0,0,0,83.979,148.442Z" transform="translate(922.781 183.368)" fill="rgba(175,173,173,0.7)" stroke="#0d4a09" stroke-miterlimit="22" stroke-width="0.71"/>
    <path id="Path_351" data-name="Path 351" d="M224.26,136.231h6.052c2.27,0,5.4,1.3,6.593,1.621l.757.54m11.78,5.944a64.806,64.806,0,0,0-8.538-6.7c-3.458-2.053-6.917-4-10.592-5.836-3.242.216-5.08-.648-5.728,1.729a14.406,14.406,0,0,0-.324,3.026c0,2.486-1.945,4.647.216,5.188h2.27c5.08,0,5.62-.865,8.214-1.513,1.513-.324,2.162-.54,2.7-1.945,2.7,1.945,5.3,3.783,8,5.62Z" transform="translate(940.725 182.285)" fill="none" stroke="#0d4a09" stroke-miterlimit="22" stroke-width="0.71"/>
    <path id="el310" d="M161.831,113.6h4.647c3.567,10.159,6.16,17.617,8.43,26.155,5.3,19.778,5.188,58.038,4.215,58.038-5.4,0-13.618-.108-18.914-.216,2.594-26.911-1.189-55.984-2.81-83.976h9.187" transform="translate(935.39 180.815)" fill="none" stroke="#0d4a09" stroke-width="0.71"/>
    <path id="el411" d="M16.488,146.083c-1.405.54-2.378,2.162-5.188,1.729a14.564,14.564,0,0,1,2.594-3.567c1.081-1.189,2.27-2.7,3.458-2.81,16.536-1.837,30.694-4.647,43.339-9.511,16.536-6.377,30.694-15.239,46.906-18.589,17.941-3.675,40.637-4.755,64.414-4.431.54.865.432,1.729.973,2.594-11.889.432-50.58-.54-72.52,14.7-6.593,3.891-21.832,14.7-19.13,21.94-16.644.54-33.936,1.081-50.58,1.621.324-2.053-2.486-4.215-4.863-4.431-1.513-.108-7.241-.108-9.4.757Z" transform="translate(923.589 180.431)" fill="none" stroke="#0d4a09" stroke-width="0.71"/>
    <path id="el49" d="M233.36,132.161a99.007,99.007,0,0,1,8.862,4.647,11.813,11.813,0,0,0,1.621.865,9.971,9.971,0,0,0,.865.54l1.945,1.3c.216.216.865.648,1.513,1.189l3.242,2.594c1.513,1.3,2.918,2.378,3.134,2.7l.108.108c.648-.648,3.242-2.81,4.215-3.675a1.089,1.089,0,0,0,.108-.324h0a7.793,7.793,0,0,1-2.486-.54c-4.431-1.513-5.836-2.7-8.862-4.539-34.693-18.589-46.906-27.56-87.327-28.424,0,0,.757,2.486.757,2.594a152.96,152.96,0,0,1,35.666,4c13.294,3.242,25.506,10.808,36.638,16.968Z" transform="translate(935.624 180.411)" fill="none" stroke="#0d4a09" stroke-width="0.71"/>
    <path id="el48" d="M282.409,200.635c.54-2.486.865-4.431,1.4-6.917-59.983-1.4-120.506-2.27-180.814-2.918.324,3.783.324,5.3.432,8.538,61.712-1.621,122.019-1.837,178.976,1.3Z" transform="translate(930.995 187.051)" fill="none" stroke="#0d4a09" stroke-width="0.71"/>
    <path id="el414" d="M63.548,141.5c2.7,0,2.053,3.35,2.053,5.4,0,1.513-1.081,4.755-2.7,5.3-2.27.757-13.077.973-15.455.108-2.053-.648-2.053-4.539-1.837-6.377a4.926,4.926,0,0,1,3.35-4C51.011,141.716,61.6,141.5,63.548,141.5Z" transform="translate(926.352 183.069)" fill="none" stroke="#0d4a09" stroke-miterlimit="22" stroke-width="0.71"/>
    <path id="Path_352" data-name="Path 352" d="M103.1,190.8" transform="translate(931.004 187.051)" fill="none" stroke="#0d4a09" stroke-miterlimit="22" stroke-width="0.71"/>
    <path id="Path_353" data-name="Path 353" d="M301.9,120.1" transform="translate(947.062 181.34)" fill="none" stroke="#0d4a09" stroke-miterlimit="22" stroke-width="0.71"/>
    <path id="Path_354" data-name="Path 354" d="M254.9,155.1" transform="translate(943.265 184.167)" fill="none" stroke="#0d4a09" stroke-miterlimit="22" stroke-width="0.71"/>
    <path id="Path_355" data-name="Path 355" d="M243.9,141.1" transform="translate(942.377 183.036)" fill="none" stroke="#0d4a09" stroke-miterlimit="22" stroke-width="0.71"/>
    <path id="Path_356" data-name="Path 356" d="M245.9,151.1" transform="translate(942.538 183.844)" fill="none" stroke="#0d4a09" stroke-miterlimit="22" stroke-width="0.71"/>
    <path id="Path_357" data-name="Path 357" d="M258.9,157.1" transform="translate(943.588 184.329)" fill="none" stroke="#0d4a09" stroke-miterlimit="22" stroke-width="0.71"/>
    <path id="Path_358" data-name="Path 358" d="M300.9,135.1" transform="translate(946.981 182.552)" fill="none" stroke="#0d4a09" stroke-miterlimit="22" stroke-width="0.71"/>
  </g>
</svg>
