<svg xmlns="http://www.w3.org/2000/svg" width="146.101" height="98.304" viewBox="0 0 146.101 98.304">
  <g id="Group_2" data-name="Group 2" transform="translate(-1153.161 -131.74)">
    <path id="Path_260" data-name="Path 260" d="M284.322,96.2c-9.4-.108-18.7-.324-28.1-.216a33.871,33.871,0,0,0-8.754.757c-3.134.973-5.512,2.918-9.295,2.81-6.809-.108-13.834.432-20.427-1.3a7.084,7.084,0,0,1-4.755-5.512c-1.4-12.429-1.837-26.371,0-37.611a10.17,10.17,0,0,1,3.675-6.16c3.026-5.512,7.89-6.917,11.889-9.835a9.047,9.047,0,0,0,3.242-3.458,104.6,104.6,0,0,1,15.239-21.291c1.4-1.513,3.35-2.27,5.944-2.594,10.7-1.189,20.1-1.189,31.451-1.189s20.751,0,31.451,1.189c2.594.324,4.647.973,5.944,2.594,5.728,6.593,10.267,12.1,15.239,21.291a9.047,9.047,0,0,0,3.242,3.458c4,2.918,8.754,4.323,11.888,9.835a10.17,10.17,0,0,1,3.675,6.16c1.837,11.24,1.405,25.182,0,37.611a7.175,7.175,0,0,1-4.863,5.62c-6.593,1.837-13.51,1.189-20.427,1.3-3.783.108-6.16-1.837-9.295-2.81a34.286,34.286,0,0,0-8.754-.757C303.02,95.873,293.617,96.089,284.322,96.2Z" transform="translate(941.781 121.495)" fill="none" stroke="#0d4a09" stroke-miterlimit="22" stroke-width="0.71"/>
    <path id="Path_261" data-name="Path 261" d="M282.542,33.359l-46.473.973c-1.729,0-2.918.216-1.837-1.945a88.561,88.561,0,0,1,13.077-18.373c.648-.865,1.3-.54,1.945-.54,11.348-.648,21.183-.973,33.18-.973s21.832.324,33.18.973c.648,0,1.3-.216,1.945.54a85.181,85.181,0,0,1,13.185,18.373c1.081,2.162,0,1.945-1.837,1.945Z" transform="translate(943.562 121.649)" fill="rgba(0,85,38,0.7)" stroke="#0d4a09" stroke-miterlimit="22" stroke-width="0.71"/>
    <path id="Path_262" data-name="Path 262" d="M216.6,45.5c.54,1.513,1.3,1.513,3.026,2.378,4.107,2.162,8.322,2.053,12.321,5.728,3.458,3.134,5.4,8,8.214,12.861" transform="translate(942.172 124.314)" fill="none" stroke="#0d4a09" stroke-miterlimit="22" stroke-width="0.71"/>
    <path id="Path_263" data-name="Path 263" d="M229.326,51.726c-1.837-.648-3.026-.54-3.026,1.621v5.188L236.567,60.7" transform="translate(942.955 124.789)" fill="none" stroke="#0d4a09" stroke-miterlimit="22" stroke-width="0.71"/>
    <path id="Path_264" data-name="Path 264" d="M217.252,46.5c-.216,2.162-.865,4.323-.648,6.485a4.027,4.027,0,0,0,1.621,2.918,24.3,24.3,0,0,0,6.16,2.053,2.353,2.353,0,0,0,1.945-1.513c.54-1.945.216-4,.216-6.052" transform="translate(942.168 124.395)" fill="none" stroke="#0d4a09" stroke-miterlimit="22" stroke-width="0.71"/>
    <path id="Path_265" data-name="Path 265" d="M238.9,65.837c-.432-.973-.973-1.945-1.513-2.918a3.962,3.962,0,0,0-2.7-1.621c-5.728-1.189-19.346-3.35-19.886-8" transform="translate(942.026 124.944)" fill="none" stroke="#0d4a09" stroke-miterlimit="22" stroke-width="0.71"/>
    <path id="el01" d="M217.61,44.41l-1.3,1.837a69.723,69.723,0,0,0-1.513,9.511c-.108,4,5.08,6.593,8.862,7.674,6.377,1.837,16.1,4,17.941,2.7-1.945-5.62-6.268-9.943-6.052-16.752C229.607,47.22,222.257,43.545,217.61,44.41Z" transform="translate(942.026 124.216)" fill="none" stroke="#0d4a09" stroke-miterlimit="22" stroke-width="0.71"/>
    <path id="Path_266" data-name="Path 266" d="M342.977,45.6c-.54,1.513-1.3,1.513-3.026,2.378-4.215,2.162-8.322,1.945-12.429,5.512-3.458,3.026-5.512,7.89-8.322,12.753" transform="translate(950.459 124.322)" fill="none" stroke="#0d4a09" stroke-miterlimit="22" stroke-width="0.71"/>
    <path id="Path_267" data-name="Path 267" d="M329.241,51.726c1.837-.648,3.026-.54,3.026,1.621v5.188L322,60.7" transform="translate(950.685 124.789)" fill="none" stroke="#0d4a09" stroke-miterlimit="22" stroke-width="0.71"/>
    <path id="Path_268" data-name="Path 268" d="M341.194,46.5c.216,2.162.865,4.323.648,6.485a4.027,4.027,0,0,1-1.621,2.918,25.018,25.018,0,0,1-6.052,2.053,2.353,2.353,0,0,1-1.945-1.513c-.54-1.945-.216-4-.216-6.052" transform="translate(951.486 124.395)" fill="none" stroke="#0d4a09" stroke-miterlimit="22" stroke-width="0.71"/>
    <path id="Path_269" data-name="Path 269" d="M320.6,65.837c.432-.973.973-1.945,1.513-2.918a3.962,3.962,0,0,1,2.7-1.621c5.728-1.189,19.346-3.35,19.886-8" transform="translate(950.572 124.944)" fill="none" stroke="#0d4a09" stroke-miterlimit="22" stroke-width="0.71"/>
    <path id="el02" d="M342.093,44.41l1.3,1.837a69.718,69.718,0,0,1,1.513,9.511c.108,4-5.08,6.593-8.862,7.674-6.377,1.837-16.1,4-17.941,2.7,2.053-5.62,6.268-9.943,6.052-16.752C330.2,47.22,337.554,43.545,342.093,44.41Z" transform="translate(950.37 124.216)" fill="none" stroke="#0d4a09" stroke-miterlimit="22" stroke-width="0.71"/>
    <path id="Path_270" data-name="Path 270" d="M281.961,49.3c12.969.108,24.642.757,36.962,1.513,1.4.108,2.81,0,4,2.378,0,2.81-1.4,4.863-2.486,7.133a30.737,30.737,0,0,1-4.863,6.917c-1.945,2.053-4.431,2.486-7.025,2.918a181.1,181.1,0,0,1-26.587,1.621,182.012,182.012,0,0,1-26.587-1.621c-2.594-.324-5.08-.865-7.025-2.918a25.44,25.44,0,0,1-4.755-6.917C242.513,58.054,241,56,241,53.191c1.189-2.378,2.594-2.27,4-2.378C257.32,50.057,269.1,49.408,281.961,49.3Z" transform="translate(944.142 124.621)" fill="rgba(0,85,38,0.7)" stroke="#0d4a09" stroke-miterlimit="22" stroke-width="0.71"/>
    <path id="Path_271" data-name="Path 271" d="M277.9,49.3V71.672" transform="translate(947.123 124.621)" fill="none" stroke="#0d4a09" stroke-miterlimit="22" stroke-width="0.71"/>
    <path id="Path_272" data-name="Path 272" d="M243.4,54.6h76.843" transform="translate(944.336 125.049)" fill="none" stroke="#0d4a09" stroke-miterlimit="22" stroke-width="0.71"/>
    <path id="Path_273" data-name="Path 273" d="M245.1,59.7h73.276" transform="translate(944.474 125.461)" fill="none" stroke="#0d4a09" stroke-miterlimit="22" stroke-width="0.71"/>
    <path id="Path_274" data-name="Path 274" d="M249.1,64.9h64.738" transform="translate(944.797 125.881)" fill="none" stroke="#0d4a09" stroke-miterlimit="22" stroke-width="0.71"/>
    <path id="el05" d="M282.284,45.5c14.266.216,27.127.973,40.637,1.945,1.621.108,3.134,0,4.431,3.026,0,3.675-1.621,6.269-2.81,9.187a35.044,35.044,0,0,1-5.3,8.862c-2.162,2.7-4.863,3.242-7.782,3.783a177.165,177.165,0,0,1-29.289,2.053A188.776,188.776,0,0,1,252.887,72.3c-2.918-.432-5.62-1.081-7.782-3.783a40.945,40.945,0,0,1-5.3-8.862c-1.189-3.026-2.81-5.62-2.81-9.187,1.3-3.134,2.81-2.918,4.431-3.026C255.157,46.473,268.018,45.716,282.284,45.5Z" transform="translate(943.819 124.314)" fill="none" stroke="#0d4a09" stroke-miterlimit="22" stroke-width="0.71"/>
    <path id="Path_275" data-name="Path 275" d="M234.483,32.7a21.429,21.429,0,0,0-3.783.324" transform="translate(943.31 123.28)" fill="none" stroke="#0d4a09" stroke-miterlimit="22" stroke-width="0.71"/>
    <path id="Path_276" data-name="Path 276" d="M323.2,32.7c1.4,0,2.81.108,4.215.216" transform="translate(950.782 123.28)" fill="none" stroke="#0d4a09" stroke-miterlimit="22" stroke-width="0.71"/>
    <path id="Path_277" data-name="Path 277" d="M217.4,44.406c5.728-.757,14.158,4.107,21.291,6.052,1.3-3.134,2.81-2.918,4.323-3.026,13.4-.973,26.047-1.729,39.989-1.945,14.05.216,28.208.973,41.61,1.945,1.513.108,3.026,0,4.323,3.026,7.133-2.053,15.563-6.809,21.291-6.052" transform="translate(942.236 124.22)" fill="none" stroke="#0d4a09" stroke-miterlimit="22" stroke-width="0.71"/>
    <path id="Path_278" data-name="Path 278" d="M258.489,72.9H302.8a1.2,1.2,0,0,1,1.189,1.189V81.87a1.2,1.2,0,0,1-1.189,1.189H258.489A1.2,1.2,0,0,1,257.3,81.87V74.089A1.2,1.2,0,0,1,258.489,72.9Z" transform="translate(945.459 126.528)" fill="none" stroke="#0d4a09" stroke-miterlimit="22" stroke-width="0.71"/>
    <path id="el04" d="M239.6,92.408l84.733-.108" transform="translate(944.029 128.095)" fill="none" stroke="#0d4a09" stroke-miterlimit="22" stroke-width="0.71"/>
    <path id="Path_279" data-name="Path 279" d="M242.3,91.3h79.221" transform="translate(944.247 128.014)" fill="none" stroke="#0d4a09" stroke-miterlimit="22" stroke-width="0.71"/>
    <path id="Path_280" data-name="Path 280" d="M283.308,84.477c11.024-.108,22.156-.54,33.18-.324,3.026.108,7.457,1.081,9.4,1.189,9.078.216,16.752-.648,25.722-1.837a8.1,8.1,0,0,0,1.729-.432c.324-.216,0-.757-.216-1.189a2.988,2.988,0,0,0-1.189-1.405,5.71,5.71,0,0,0-1.405-.108c-.432,0-1.945.108-2.27.108l-21.724,1.081c-1.405,0-1.621.865-.648.865l23.453-.865c.865,0,.757.865-.108.865-5.728.54-11.24,1.4-16.968,1.621A60.61,60.61,0,0,1,319.73,83.4a19.26,19.26,0,0,0-4.972-.324h-8.646m-22.8,1.3c-11.024-.108-19.454-.54-30.478-.324-3.026.108-7.457,1.081-9.4,1.189-9.079.216-16.752-.757-25.722-1.837a8.1,8.1,0,0,1-1.729-.432c-.324-.216,0-.757.216-1.189a3.725,3.725,0,0,1,1.3-1.3,5.71,5.71,0,0,1,1.4-.108c.432,0,1.945.108,2.27.108l21.724,1.081c1.4,0,1.621.865.648.865l-23.669-.865c-.865,0-.757.865.108.865,5.728.54,11.24,1.4,16.968,1.621A60.61,60.61,0,0,0,249.48,83.4a19.26,19.26,0,0,1,4.972-.324H263.1m44.312-5.188c.324-.108,9.727,0,13.51-.865,2.053-.432,2.486-1.189,4.539-1.405,8.646-1.081,17.4-1.837,23.237-1.405a6.274,6.274,0,0,1,5.836,4.215,43.362,43.362,0,0,1-.216,6.485c-.108,2.7-.324,3.026-2.7,3.675-6.485,1.837-12.969,2.162-19.67,2.27-3.783,0-5.944-.865-8.97-1.837s-8.106-.648-11.024-.648c-9.295-.108-19.238.324-28.532.324,9.835,0-24.966-.324-25.831-.324-2.918,0-8-.108-11.024.648s-5.188,1.945-8.97,1.837c-6.7-.108-13.185-.432-19.67-2.27-2.378-.648-2.486-.865-2.7-3.675A43.364,43.364,0,0,1,215,78.424a6.169,6.169,0,0,1,5.836-4.215c5.836-.324,14.482.324,23.237,1.405,2.053.216,2.378.973,4.539,1.405,3.891.865,12,.757,12.321.865" transform="translate(942.039 126.623)" fill="rgba(175,173,173,0.7)" stroke="#0d4a09" stroke-miterlimit="22" stroke-width="0.71"/>
    <path id="Path_281" data-name="Path 281" d="M247.685,74.23a20.834,20.834,0,0,0-3.242-2.918,8.186,8.186,0,0,0-3.242,0,10.487,10.487,0,0,0,.108,1.837" transform="translate(944.159 126.386)" fill="none" stroke="#0d4a09" stroke-miterlimit="22" stroke-width="0.71"/>
    <path id="el03" d="M284.32,91.448c9.4-.108,18.7-.324,28.1-.216a33.871,33.871,0,0,1,8.754.757c3.134.973,5.512,2.918,9.295,2.81,6.809-.108,13.834.432,20.427-1.3a7.045,7.045,0,0,0,4.863-5.62c.648-5.944,1.081-12.321,1.189-18.481-2.81.432-1.621,4.755-2.378,7.133-1.081-2.594-2.27-3.675-4-3.891-8.322-1.189-17.4,0-25.614.54-.648,0-1.729.757-2.27.865l-3.675.324-11.348.324v7.457a1.2,1.2,0,0,1-1.189,1.189h-44.2a1.2,1.2,0,0,1-1.189-1.189V74.7l-11.564-.324-3.567-.216c-.648,0-1.729-.757-2.27-.865-8.106-.54-17.292-1.729-25.614-.54-1.729.216-2.918,1.3-4,3.891-.757-2.27.432-6.485-2.27-7.025.108,6.16.54,12.429,1.189,18.373a6.928,6.928,0,0,0,4.755,5.512c6.593,1.837,13.618,1.189,20.427,1.3,3.783.108,6.16-1.837,9.295-2.81a34.285,34.285,0,0,1,8.754-.757C265.514,91.124,274.917,91.448,284.32,91.448Z" transform="translate(941.784 126.245)" fill="none" stroke="#0d4a09" stroke-miterlimit="22" stroke-width="0.71"/>
    <path id="Path_282" data-name="Path 282" d="M312.1,74.23a20.833,20.833,0,0,1,3.242-2.918,8.186,8.186,0,0,1,3.242,0,10.484,10.484,0,0,1-.108,1.837" transform="translate(949.885 126.386)" fill="none" stroke="#0d4a09" stroke-miterlimit="22" stroke-width="0.71"/>
    <path id="Path_283" data-name="Path 283" d="M228.279,102.227c3.35,0,5.3-2.7,5.4-6.052l.108-2.27c-5.4,0-10.916.108-16-1.3A7.084,7.084,0,0,1,213.04,87.1c-.216-1.729-.324-3.458-.54-5.3,0-.108,1.081,10.592,1.405,14.59a6.882,6.882,0,0,0,6.809,6.052Z" transform="translate(941.84 127.246)" fill="rgba(175,173,173,0.7)" stroke="#0d4a09" stroke-miterlimit="22" stroke-width="0.71"/>
    <path id="Path_284" data-name="Path 284" d="M230.952,27.1c.108-.757-.216-1.3-.865-1.3-2.486,0-6.268,0-7.89,1.405s-3.675,3.242-2.053,6.16a3.688,3.688,0,0,0,2.378,1.621h4.107l4.215-.108.757-1.513c-.54,0-1.621.216-1.945-.324C230.087,30.88,230.52,29.15,230.952,27.1Z" transform="translate(942.41 122.723)" fill="none" stroke="#0d4a09" stroke-miterlimit="22" stroke-width="0.71"/>
    <path id="Path_285" data-name="Path 285" d="M221.1,28c-.324.973.865,1.3,1.621,1.513,1.3.324,2.594.54,3.891.757,1.189.108,2.27.216,3.458.216" transform="translate(942.531 122.901)" fill="none" stroke="#0d4a09" stroke-miterlimit="22" stroke-width="0.71"/>
    <path id="Path_286" data-name="Path 286" d="M219.9,32.1c1.3.973,6.809.54,8.754.54h.648" transform="translate(942.438 123.232)" fill="none" stroke="#0d4a09" stroke-miterlimit="22" stroke-width="0.71"/>
    <path id="Path_287" data-name="Path 287" d="M229.118,32.4,226.2,34.345" transform="translate(942.947 123.256)" fill="none" stroke="#0d4a09" stroke-miterlimit="22" stroke-width="0.71"/>
    <path id="Path_288" data-name="Path 288" d="M327.64,27.1c-.108-.757.216-1.3.865-1.3,2.486,0,6.269,0,7.89,1.405s3.675,3.242,2.053,6.16a3.752,3.752,0,0,1-2.27,1.621h-4.107l-4.215-.108-.757-1.513c.54,0,1.621.216,1.945-.324Z" transform="translate(951.097 122.723)" fill="none" stroke="#0d4a09" stroke-miterlimit="22" stroke-width="0.71"/>
    <path id="Path_289" data-name="Path 289" d="M337.262,28c.324.973-.865,1.3-1.513,1.513-1.3.324-2.594.54-3.891.757-1.189.108-2.27.216-3.458.216" transform="translate(951.202 122.901)" fill="none" stroke="#0d4a09" stroke-miterlimit="22" stroke-width="0.71"/>
    <path id="Path_290" data-name="Path 290" d="M338.6,32.1c-1.4.973-6.809.54-8.754.54H329.2" transform="translate(951.267 123.232)" fill="none" stroke="#0d4a09" stroke-miterlimit="22" stroke-width="0.71"/>
    <path id="Path_291" data-name="Path 291" d="M328.9,32.4l2.918,1.945" transform="translate(951.242 123.256)" fill="none" stroke="#0d4a09" stroke-miterlimit="22" stroke-width="0.71"/>
    <path id="Path_292" data-name="Path 292" d="M242.5,36.447h79.653a5.489,5.489,0,0,0,5.3-3.675L282.276,31.8l-45.176.973A5.581,5.581,0,0,0,242.5,36.447Z" transform="translate(943.827 123.208)" fill="none" stroke="#0d4a09" stroke-miterlimit="22" stroke-width="0.71"/>
    <path id="Path_293" data-name="Path 293" d="M229.7,34.7c1.081,5.3,3.134,11.672,8,16.536" transform="translate(943.23 123.442)" fill="none" stroke="#0d4a09" stroke-miterlimit="22" stroke-width="0.71"/>
    <path id="Path_294" data-name="Path 294" d="M328.568,50.533Zm-27.344-3.35c6.809.324,13.51.648,20.1,1.081l3.783.216h1.081c1.189.108,2.378.54,3.35,3.026a26.684,26.684,0,0,0,3.134-1.081c6.052-2.162,13.185-5.728,17.833-5.08h.324c-3.026-4-7.133-5.4-10.592-7.89A9.048,9.048,0,0,1,337,34l-.54-.973c-1.4-.108-2.81-.216-4.215-.216h-2.81a5.489,5.489,0,0,1-5.3,3.675H244.484a5.489,5.489,0,0,1-5.3-3.675h-1.3a10.486,10.486,0,0,1-1.837-.108,21.428,21.428,0,0,0-3.783.324l-.54.973a9.048,9.048,0,0,1-3.242,3.458c-4,2.918-8.754,4.323-11.889,9.835l.432-.648.865-1.3c3.134-.54,7.457.973,11.78,2.594,2.053.757,4.215,1.621,6.268,2.378,1.081.432,2.162.757,3.242,1.081,1.081-2.7,2.486-2.918,3.783-3.026,1.4-.108,3.026-.216,3.134-.216,12.1-.865,24.75-1.189,37.179-1.621C289.12,46.75,295.172,46.966,301.225,47.182Z" transform="translate(942.172 123.28)" fill="none" stroke="#0d4a09" stroke-miterlimit="22" stroke-width="0.71"/>
    <path id="Path_295" data-name="Path 295" d="M328.7,34.7c-1.081,5.3-3.134,11.672-8,16.536" transform="translate(950.58 123.442)" fill="none" stroke="#0d4a09" stroke-miterlimit="22" stroke-width="0.71"/>
    <path id="Path_296" data-name="Path 296" d="M278.3,46.151V36.1" transform="translate(947.155 123.555)" fill="none" stroke="#0d4a09" stroke-miterlimit="22" stroke-width="0.71"/>
    <path id="Path_297" data-name="Path 297" d="M331.112,102.235c-3.35,0-5.3-2.7-5.4-6.052l-.108-2.27c5.4,0,10.916.108,16.1-1.3A6.925,6.925,0,0,0,346.459,87c.216-1.729.432-3.458.54-5.3,0-.108-1.081,10.592-1.4,14.59a6.882,6.882,0,0,1-6.809,6.052Z" transform="translate(950.976 127.238)" fill="rgba(175,173,173,0.7)" stroke="#0d4a09" stroke-miterlimit="22" stroke-width="0.71"/>
  </g>
</svg>
