<svg xmlns="http://www.w3.org/2000/svg" width="146.831" height="109.976" viewBox="0 0 146.831 109.976">
  <g id="Group_1" data-name="Group 1" transform="translate(-969.645 -119.608)">
    <path id="Path_228" data-name="Path 228" d="M73.468,88.917c11.564,0,20.643.108,32.207.108,2.053.324,3.35,1.837,4.647,2.7a13.2,13.2,0,0,0,5.944,2.486c7.025,0,13.4.324,20.535,0a6.193,6.193,0,0,0,4.107-2.378c5.08-6.809,4.647-12.645,5.512-20.967a3.607,3.607,0,0,0-.973-2.486c.216-4.972-.432-8.754-.757-13.4a33.524,33.524,0,0,0-4.647-15.131c-1.405-2.378-3.026-2.378-4.539-5.3-4.863-7.565-8-14.374-14.807-22.48a20.355,20.355,0,0,0-4.972-4.647,11.528,11.528,0,0,0-2.918-.865,8.1,8.1,0,0,0-1.729-.54C98.65,4.4,88.275,4.832,76.819,4.4a2.518,2.518,0,0,1-1.621.757c-1.513,0-2.162.108-3.675,0A3.165,3.165,0,0,1,69.794,4.4c-11.456.432-21.724,0-34.261,1.837a10.623,10.623,0,0,0-1.729.54,9.985,9.985,0,0,0-2.918.865,20.355,20.355,0,0,0-4.972,4.647c-6.7,8.106-9.835,14.915-14.7,22.48-1.513,2.918-3.026,2.918-4.539,5.3A34.364,34.364,0,0,0,2.029,55.2c-.324,4.539-.973,8.322-.757,13.4A3.353,3.353,0,0,0,.3,70.976C1.165,79.3.84,85.134,5.92,91.943a6.193,6.193,0,0,0,4.107,2.378c7.133.324,13.51,0,20.535,0a13.2,13.2,0,0,0,5.944-2.486c1.3-.865,2.594-2.378,4.647-2.7C52.718,89.025,61.9,88.917,73.468,88.917Z" transform="translate(969.7 119.995)" fill="none" stroke="#0d4a09" stroke-miterlimit="22" stroke-width="0.71"/>
    <path id="Path_229" data-name="Path 229" d="M104.2,6.4a15.393,15.393,0,0,1,3.134,5.08" transform="translate(978.092 120.156)" fill="none" stroke="#0d4a09" stroke-miterlimit="22" stroke-width="0.71"/>
    <path id="Path_230" data-name="Path 230" d="M32.458,6.2A19.165,19.165,0,0,0,29,11.6" transform="translate(972.018 120.14)" fill="none" stroke="#0d4a09" stroke-miterlimit="22" stroke-width="0.71"/>
    <path id="Path_231" data-name="Path 231" d="M114.3,96.276V88.17c3.783.108,7.565.108,11.564,0h1.621a6.193,6.193,0,0,0,4.107-2.378,22.668,22.668,0,0,0,3.458-6.593V96.276a6.758,6.758,0,0,1-6.809,6.7h-7.349A6.642,6.642,0,0,1,114.3,96.276Z" transform="translate(978.908 126.036)" fill="rgba(175,173,173,0.7)" stroke="#0d4a09" stroke-miterlimit="22" stroke-width="0.71"/>
    <path id="el24" d="M28.932,78.507l-6.917.108-13.942.324c1.405-.865,2.918-2.378,5.4-2.486,5.728-.108,10.916.216,16.752.108a4.205,4.205,0,0,0,2.486-.757C32.067,76.777,30.446,78.507,28.932,78.507ZM114.1,75.8a18.507,18.507,0,0,0,1.636,1.986,3.958,3.958,0,0,0,1.678.673c-21.4-.216-51.3-.281-75.618-.064-20.319.216-36.422.54-39.664,1.081C.94,75.48.832,71.373.4,66.186a3.353,3.353,0,0,1,.973-2.378L145.44,63.7a3.424,3.424,0,0,1,.973,2.486c-.54,5.08-.54,9.079-1.729,13.077a54.774,54.774,0,0,0-5.944-.324c-1.4-.865-2.918-2.378-5.4-2.486-1.335-.025-4.246-.013-4.246-.013s-8.03.2-12.506.121A2.9,2.9,0,0,1,114.1,75.8Z" transform="translate(969.708 124.784)" fill="rgba(175,173,173,0.7)" stroke="#0d4a09" stroke-miterlimit="22" stroke-width="0.71"/>
    <path id="Path_232" data-name="Path 232" d="M70,3.308c.865,0,1.405.865,1.621,1.189a3.652,3.652,0,0,1-1.3.648,28.861,28.861,0,0,1-4.323,0A2.945,2.945,0,0,1,64.7,4.5a2.594,2.594,0,0,1,1.621-1.189c.324,0,.865-.108,1.513-.108v.432a.345.345,0,0,0,.324.324h.54a.345.345,0,0,0,.324-.324V3.2Z" transform="translate(974.902 119.898)" fill="none" stroke="#0d4a09" stroke-miterlimit="22" stroke-width="0.71"/>
    <path id="Path_233" data-name="Path 233" d="M68.04.3h0c-.324,0-.54,2.81-.54,3.458a.345.345,0,0,0,.324.324h.54a.345.345,0,0,0,.324-.324C68.689,3,68.365.3,68.04.3Z" transform="translate(975.128 119.663)" fill="none" stroke="#0d4a09" stroke-miterlimit="22" stroke-width="0.71"/>
    <path id="Path_234" data-name="Path 234" d="M31.8,10.228a16.324,16.324,0,0,1,2.918-4.215C46.39,4.5,56.226,4.932,67.141,4.5c.108,0,.216.108.324.216a1.942,1.942,0,0,0,.973.432c.108,0,.216.108.432.108h3.675A2.3,2.3,0,0,0,74.166,4.5c11.132.432,21.183,0,33.072,1.621a14.528,14.528,0,0,1,2.918,4.323,28.973,28.973,0,0,0-2.918-.757C96.971,7.958,81.083,7.2,70.708,7.2A278.056,278.056,0,0,0,34.07,9.58,17.89,17.89,0,0,0,31.8,10.228Z" transform="translate(972.244 120.003)" fill="none" stroke="#0d4a09" stroke-miterlimit="22" stroke-width="0.71"/>
    <path id="Path_235" data-name="Path 235" d="M116.426,47.905l13.834-1.189c1.189,0,2.162-.757,2.162.54.324,3.026-1.189,3.026-2.378,3.026L113.4,52.228Z" transform="translate(978.836 123.395)" fill="rgba(0,85,38,0.7)" stroke="#0d4a09" stroke-miterlimit="22" stroke-width="0.71"/>
    <path id="Path_236" data-name="Path 236" d="M120.667,42.067,117.1,46.606c.648-.108,10.7-1.081,14.05-2.378a1.625,1.625,0,0,0,.973-1.081c.432-1.729-.757-1.405-.648-2.27a2.786,2.786,0,0,0-.757-2.378,3.582,3.582,0,0,1-3.026,2.7Z" transform="translate(979.134 122.749)" fill="rgba(0,85,38,0.7)" stroke="#0d4a09" stroke-miterlimit="22" stroke-width="0.71"/>
    <path id="Path_237" data-name="Path 237" d="M121.8,40.326c1.189-3.35,4.863-5.944,7.782-3.242.432.432,1.081,1.405.54,1.945Z" transform="translate(979.514 122.544)" fill="rgba(0,85,38,0.7)" stroke="#0d4a09" stroke-miterlimit="22" stroke-width="0.71"/>
    <path id="Path_238" data-name="Path 238" d="M121.077,39.2H114.7" transform="translate(978.941 122.806)" fill="none" stroke="#0d4a09" stroke-miterlimit="22" stroke-width="0.71"/>
    <path id="el22" d="M133.617,43c-.108,2.81-.324,5.62-.648,8.322-.432,1.945-1.945,3.026-4.107,3.567-5.4,1.3-11.024,1.405-16.536,2.162-2.594,0-1.513-1.513-1.189-2.27,5.3-7.565,10.159-14.915,15.347-22.48,1.513,2.918,3.026,2.918,4.539,5.3A27.515,27.515,0,0,1,133.617,43Z" transform="translate(978.612 122.248)" fill="none" stroke="#0d4a09" stroke-miterlimit="22" stroke-width="0.71"/>
    <path id="Path_239" data-name="Path 239" d="M21.744,39.3H15.8" transform="translate(970.952 122.814)" fill="none" stroke="#0d4a09" stroke-miterlimit="22" stroke-width="0.71"/>
    <path id="Path_240" data-name="Path 240" d="M21.407,47.9,7.573,46.816c-1.189,0-2.27-.757-2.27.54-.324,2.918,1.189,2.918,2.378,2.918l16.752,1.837Z" transform="translate(970.101 123.403)" fill="rgba(0,85,38,0.7)" stroke="#0d4a09" stroke-miterlimit="22" stroke-width="0.71"/>
    <path id="Path_241" data-name="Path 241" d="M16.755,42.058,20.322,46.6c-.648-.108-10.7-1.081-14.05-2.378a1.164,1.164,0,0,1-.865-1.081c-.432-1.729.757-1.405.648-2.162A3.094,3.094,0,0,1,6.7,38.6,3.716,3.716,0,0,0,9.73,41.3Z" transform="translate(970.105 122.757)" fill="rgba(0,85,38,0.7)" stroke="#0d4a09" stroke-miterlimit="22" stroke-width="0.71"/>
    <path id="Path_242" data-name="Path 242" d="M15.137,40.426c-1.081-3.35-4.863-5.944-7.782-3.242-.432.432-1.081,1.405-.54,1.945Z" transform="translate(970.21 122.552)" fill="rgba(0,85,38,0.7)" stroke="#0d4a09" stroke-miterlimit="22" stroke-width="0.71"/>
    <path id="el26" d="M72.046,23.8h0l53.5,1.3c2.378,1.405,1.945,3.783,1.945,5.728,0,1.081-8.538,17.184-14.807,23.993A18.32,18.32,0,0,1,100.146,61.3c-9.943.757-16.644,1.729-28.1,1.729h0c-11.456,0-18.157-.973-28.1-1.729a18.32,18.32,0,0,1-12.537-6.485C25.14,48.009,16.6,31.906,16.6,30.825c0-1.945-.432-4.323,1.945-5.728l53.5-1.3Z" transform="translate(971.014 121.562)" fill="none" stroke="#0d4a09" stroke-miterlimit="22" stroke-width="0.71"/>
    <path id="el21" d="M4.4,43a71.909,71.909,0,0,0,.648,8.322c.324,1.945,1.945,3.026,4.107,3.567,5.4,1.3,11.024,1.405,16.536,2.162,2.594,0,1.513-1.513,1.189-2.27-5.3-7.565-10.159-14.915-15.455-22.48C9.912,35.218,8.4,35.218,6.886,37.6,6.021,39.433,5.157,41.162,4.4,43Z" transform="translate(970.031 122.248)" fill="none" stroke="#0d4a09" stroke-miterlimit="22" stroke-width="0.71"/>
    <path id="Path_243" data-name="Path 243" d="M122.26,39.406H107.994c-.648-.54-1.729-1.405-4.539-1.189C92.647,37.785,81.84,38.109,71.68,38c-10.159.216-21.075-.216-31.775.216-2.81-.216-4,.648-4.539,1.189H21.1" transform="translate(971.38 122.707)" fill="none" stroke="#0d4a09" stroke-miterlimit="22" stroke-width="0.71"/>
    <path id="Path_244" data-name="Path 244" d="M107.982,39.3c-.865,7.241-6.485,15.131-13.077,17.184-5.836,1.837-16.212,2.378-24.209,2.378s-18.373-.54-24.209-2.378C39.893,54.431,34.273,46.541,33.3,39.3" transform="translate(972.366 122.814)" fill="rgba(255,255,255,0.7)" stroke="#0d4a09" stroke-miterlimit="22" stroke-width="0.71"/>
    <path id="Path_245" data-name="Path 245" d="M100.884,43.407c-.648-2.81-4.107-2.7-9.4-2.918-4.755-.216-14.59,0-20.859,0s-16-.216-20.643,0c-5.3.324-8.106-.54-8.862,2.918M106.936,39.3l-5.944,4.107A15.2,15.2,0,0,1,90.508,54.863c-4.755,1.189-13.077,1.621-19.454,1.621s-14.7-.324-19.454-1.513c-5.3-1.405-9.835-6.593-10.592-11.456L34.2,39.3" transform="translate(972.438 122.814)" fill="none" stroke="#0d4a09" stroke-miterlimit="22" stroke-width="0.71"/>
    <path id="Path_246" data-name="Path 246" d="M48.165,40.4H91.828a.852.852,0,0,1,.865.865v7.782a.852.852,0,0,1-.865.865H48.165a.852.852,0,0,1-.865-.865V41.265A.93.93,0,0,1,48.165,40.4Z" transform="translate(973.496 122.902)" fill="none" stroke="#0d4a09" stroke-miterlimit="22" stroke-width="0.71"/>
    <path id="Path_247" data-name="Path 247" d="M123.662,36.982c-32.1-1.729-69.6-1.189-103.862,0" transform="translate(971.275 122.537)" fill="none" stroke="#0d4a09" stroke-miterlimit="22" stroke-width="0.71"/>
    <path id="Path_248" data-name="Path 248" d="M111.532,54.7,100.4,56.862" transform="translate(977.786 124.058)" fill="none" stroke="#0d4a09" stroke-miterlimit="22" stroke-width="0.71"/>
    <path id="Path_249" data-name="Path 249" d="M25.7,54.8l10.592,2.053" transform="translate(971.752 124.066)" fill="none" stroke="#0d4a09" stroke-miterlimit="22" stroke-width="0.71"/>
    <path id="Path_250" data-name="Path 250" d="M23.051,96.368v-8c-3.783.108-7.565.108-11.564,0H9.865a6.193,6.193,0,0,1-4.107-2.378A21.38,21.38,0,0,1,2.3,79.4V96.476a6.735,6.735,0,0,0,6.7,6.7H16.35A6.9,6.9,0,0,0,23.051,96.368Z" transform="translate(969.862 126.053)" fill="rgba(175,173,173,0.7)" stroke="#0d4a09" stroke-miterlimit="22" stroke-width="0.71"/>
    <path id="Path_251" data-name="Path 251" d="M109.111,85.8,32.7,85.908" transform="translate(972.317 126.57)" fill="none" stroke="#0d4a09" stroke-miterlimit="22" stroke-width="0.71"/>
    <path id="Path_252" data-name="Path 252" d="M70.769,79.8h34.261v.216c0,.54-5.188,1.081-6.7,1.081H44.073c-1.513,0-7.673-.432-7.673-1.081V79.8Z" transform="translate(972.616 126.085)" fill="none" stroke="#0d4a09" stroke-miterlimit="22" stroke-width="0.71"/>
    <path id="Path_253" data-name="Path 253" d="M119.227,81.5H104.421c-1.3,0-3.242.216-2.918,1.405.54,2.594,5.3,4.431,8.106,4.431l13.834-.216c2.378,0,3.242-1.945,2.27-2.81C122.9,81.824,121.713,81.5,119.227,81.5Z" transform="translate(977.872 126.222)" fill="none" stroke="#0d4a09" stroke-miterlimit="22" stroke-width="0.71"/>
    <path id="Path_254" data-name="Path 254" d="M118.456,82.2H105.6c-1.081,0-2.81.108-2.594,1.081.432,1.837,4.647,3.242,7.025,3.242l12.1-.108c2.162,0,2.81-1.4,2.053-2.053C121.7,82.524,120.618,82.2,118.456,82.2Z" transform="translate(977.994 126.279)" fill="none" stroke="#0d4a09" stroke-miterlimit="22" stroke-width="0.71"/>
    <path id="Path_255" data-name="Path 255" d="M69.333,82.6H87.057v.216c0,.865-2.7,1.405-3.458,1.405H55.5c-.757,0-4-.648-4-1.405V82.6Z" transform="translate(973.836 126.311)" fill="none" stroke="#0d4a09" stroke-miterlimit="22" stroke-width="0.71"/>
    <path id="Path_256" data-name="Path 256" d="M134.289,88.232c1.945-3.675,1.3-8-4.863-8.214-19.13-.54-37.827,0-56.741.108-18.914,0-37.611-.54-56.849,0-6.16.216-6.809,4.539-4.863,8.214" transform="translate(970.483 126.083)" fill="none" stroke="#0d4a09" stroke-miterlimit="22" stroke-width="0.71"/>
    <path id="Path_257" data-name="Path 257" d="M18.522,81.6h14.7c1.3,0,3.242.216,2.918,1.405-.54,2.594-5.3,4.431-8.106,4.431L14.2,87.328c-2.378,0-3.242-1.945-2.27-2.81C14.847,81.924,16.036,81.6,18.522,81.6Z" transform="translate(970.608 126.23)" fill="none" stroke="#0d4a09" stroke-miterlimit="22" stroke-width="0.71"/>
    <path id="Path_258" data-name="Path 258" d="M19.051,82.3H31.912c1.081,0,2.81.108,2.594.973-.432,1.837-4.647,3.242-7.025,3.242l-12.1-.108c-2.162,0-2.81-1.4-2.053-2.053C15.808,82.624,16.889,82.3,19.051,82.3Z" transform="translate(970.727 126.287)" fill="none" stroke="#0d4a09" stroke-miterlimit="22" stroke-width="0.71"/>
    <path id="el25" d="M126.169,77.422h-.837c4.431.108,8.862.216,13.185.324a53.313,53.313,0,0,1,5.944.324,24.452,24.452,0,0,1-3.891,7.89,6.193,6.193,0,0,1-4.107,2.378c-7.025.324-13.51,0-20.535,0a12.326,12.326,0,0,1-5.836-2.486c-1.3-.865-2.594-2.378-4.647-2.7-11.564,0-20.643-.108-32.207-.108s-20.751.108-32.315.108c-2.053.324-3.35,1.837-4.647,2.7a13.2,13.2,0,0,1-5.944,2.486c-7.025,0-13.4.324-20.535.108a6.193,6.193,0,0,1-4.107-2.378A24.485,24.485,0,0,1,1.8,78.394c7.133-1.189,76.3-1.513,115.643-1.081Z" transform="translate(969.821 125.869)" fill="rgba(0,85,38,0.7)" stroke="#0d4a09" stroke-miterlimit="22" stroke-width="0.71"/>
    <path id="Path_259" data-name="Path 259" d="M26.19,14.024c-3.458,3.458-5.944,8.538-7.89,12.429l53.606-1.405,53.606,1.3c-1.945-4-4.431-8.97-7.89-12.537a16.913,16.913,0,0,0-9.078-4.539C88.01,6.242,55.8,6.242,35.268,9.377A16.35,16.35,0,0,0,26.19,14.024Z" transform="translate(971.154 120.206)" fill="rgba(0,85,38,0.7)" stroke="#0d4a09" stroke-miterlimit="22" stroke-width="0.71"/>
  </g>
</svg>
