<svg id="driver-license" xmlns="http://www.w3.org/2000/svg" width="303.853" height="303.852" viewBox="0 0 303.853 303.852">
  <g id="Group_7" data-name="Group 7" transform="translate(139.267 193.58)">
    <path id="Path_397" data-name="Path 397" d="M287.65,458.668h-25.32A6.331,6.331,0,0,0,256,465v12.662a12.383,12.383,0,0,0,12.66,12.66h12.662a12.383,12.383,0,0,0,12.66-12.66V465a6.331,6.331,0,0,0-6.331-6.329Zm0,0" transform="translate(-243.34 -380.046)" fill="#fff"/>
    <path id="Path_398" data-name="Path 398" d="M458.318,458.668H433A6.331,6.331,0,0,0,426.668,465v12.662a12.383,12.383,0,0,0,12.66,12.66h12.66a12.385,12.385,0,0,0,12.662-12.66V465a6.333,6.333,0,0,0-6.331-6.329Zm0,0" transform="translate(-312.723 -380.046)" fill="#fff"/>
    <path id="Path_399" data-name="Path 399" d="M244.238,326.188a9.968,9.968,0,0,0-6.127,1.873,8.653,8.653,0,0,0-3.443,7.115c0,9.876,7.659,16.726,8.545,17.472a6.346,6.346,0,0,0,4.115,1.518,6.473,6.473,0,0,0,2.835-.67l12.662-6.331a6.339,6.339,0,0,0,3.494-5.659c0-8.7-15.673-15.319-22.081-15.319Zm0,0" transform="translate(-234.668 -326.188)" fill="#fff"/>
    <path id="Path_400" data-name="Path 400" d="M480.747,326.188c-6.405,0-22.079,6.621-22.079,15.319a6.339,6.339,0,0,0,3.494,5.659l12.66,6.331a6.49,6.49,0,0,0,2.838.67,6.346,6.346,0,0,0,4.115-1.518c.886-.746,8.545-7.6,8.545-17.472,0-5.292-3.936-8.988-9.572-8.988Zm0,0" transform="translate(-325.733 -326.188)" fill="#fff"/>
  </g>
  <path id="Path_401" data-name="Path 401" d="M383.852,318.291c-5.267-15.954-18.054-31.537-26.69-35.867-4.822-2.406-21.193-5.091-35.867-5.091s-31.043,2.684-35.893,5.091c-8.621,4.33-21.395,19.913-26.662,35.867-9.243,9.95-13.409,27.7-13.409,41.336,0,10.432,1.064,29.005,8.179,36.134a6.378,6.378,0,0,0,4.483,1.848h24.332c4.33,1.342,21.485,6.331,38.969,6.331s34.641-4.989,38.969-6.331H384.6a6.372,6.372,0,0,0,4.481-1.848c7.117-7.117,8.179-25.688,8.179-36.134,0-13.636-4.152-31.386-13.406-41.336Zm0,0" transform="translate(-99.737 -112.746)" fill="#afadad"/>
  <path id="Path_402" data-name="Path 402" d="M128.883,257.638a41.253,41.253,0,0,1-8.608-24.714,27.572,27.572,0,0,1,11.051-22.32,28.886,28.886,0,0,1,17.509-5.659,34.406,34.406,0,0,1,4.748.443c7.026-9.989,15.511-18.281,23.562-22.334,9.305-4.62,29.8-7.115,44.412-7.115s35.135,2.48,44.364,7.1c8.065,4.038,16.573,12.342,23.611,22.345a34.471,34.471,0,0,1,4.748-.443,29.722,29.722,0,0,1,9.572,1.671V74.668H0V226.595a31.663,31.663,0,0,0,31.651,31.65h93.816l3.329-.051c.039-.19.051-.366.088-.556Zm0,0" transform="translate(0 -30.356)" fill="#fff"/>
  <path id="Path_403" data-name="Path 403" d="M169.811,222.29a28.663,28.663,0,0,0-16.839,5.7,26.914,26.914,0,0,0-10.256,15.954H53.333a28.289,28.289,0,0,1,21.4-27.348l22.663-5.7,2.659-10.763a34.962,34.962,0,0,1-10.636-22.28H88.53a5.6,5.6,0,0,1-5.571-4.813l-1.393-11.014a5.554,5.554,0,0,1,5.571-6.2h.508s-1.268-10.256-1.268-13.673c0-9.876,2.534-19.118,24.816-19.371,7.342-5.19,15.319-5.445,19.876-5.445,8.735,0,15.066,2.786,18.611,8.23s3.545,10,0,13.8l-2.784,2.786-.633,13.673a5.593,5.593,0,0,1,5.443,6.2l-1.393,11.014a5.6,5.6,0,0,1-5.571,4.813h-.253a34.418,34.418,0,0,1-11.141,22.66L135.88,210.9l22.663,5.7a27.956,27.956,0,0,1,11.269,5.7Zm0,0" transform="translate(-21.682 -47.7)" fill="#fff"/>
  <path id="Path_404" data-name="Path 404" d="M303.852,31.651V44.313H0V31.651A31.663,31.663,0,0,1,31.651,0H272.2A31.663,31.663,0,0,1,303.852,31.651Zm0,0" transform="translate(0)" fill="#fff"/>
  <path id="Path_405" data-name="Path 405" d="M308.456,302.439c2.381-1.09,15.915-3.772,30.246-3.772s27.867,2.682,30.209,3.76c4.8,2.4,15.926,15.015,20.345,28.739-11.9,1.683-40.031,5.483-50.553,5.483s-38.652-3.8-50.553-5.483c4.432-13.724,15.548-26.335,20.308-28.727Zm0,0" transform="translate(-117.143 -121.42)" fill="#fafafa"/>
  <path id="Path_406" data-name="Path 406" d="M138.343,245.932H49a6.331,6.331,0,0,1-6.329-6.329A34.486,34.486,0,0,1,68.81,206.1l19-4.736.923-3.721a42.171,42.171,0,0,1-9.354-18.9,11.583,11.583,0,0,1-7-9.229L71.015,158.5a11.791,11.791,0,0,1,2.861-9.291,12.207,12.207,0,0,1,2.545-2.179c-.355-3.252-.735-7.177-.735-9.266,0-10.6,3.062-24.638,29.119-25.549,8.837-5.545,17.941-5.545,21.979-5.545,13.71,0,20.535,6.064,23.852,11.127,6.989,10.673,2.571,18.091-.7,21.548l-1.152,1.166-.329,6.723A11.8,11.8,0,0,1,153.6,158.5l-1.368,10.991a11.864,11.864,0,0,1-6.343,9.064,41.874,41.874,0,0,1-9.876,19.612l.786,3.19,19,4.736a34.39,34.39,0,0,1,13.712,7.064,6.336,6.336,0,0,1-8.142,9.711,21.382,21.382,0,0,0-8.658-4.483l-22.688-5.659a6.332,6.332,0,0,1-4.609-4.609l-2.582-10.344a6.333,6.333,0,0,1,1.91-6.241,28.859,28.859,0,0,0,9.143-18.471,6.321,6.321,0,0,1,6.3-5.837l.823-10.279a5.06,5.06,0,0,1-4.126-1.521,5.008,5.008,0,0,1-1.317-4.177l.684-13.786a6.3,6.3,0,0,1,1.848-4.166l2.747-2.747c.709-.76,1.76-1.875-.809-5.823-.888-1.342-3.533-5.394-13.256-5.394-3.331,0-10.267,0-16.306,4.317a6.328,6.328,0,0,1-3.621,1.192c-18.511.176-18.511,6.368-18.511,12.926,0,2.239.772,9.141,1.254,12.963a6.326,6.326,0,0,1-6.28,7.128l1.634,10.091c3.3,0,6.113,1.808,6.38,5.1a28.756,28.756,0,0,0,8.735,18.131,6.32,6.32,0,0,1,1.811,6.141l-2.7,10.8a6.332,6.332,0,0,1-4.609,4.609l-22.688,5.659a21.8,21.8,0,0,0-15.622,14.878l82.079.012a6.33,6.33,0,1,1,0,12.66Zm0,0" transform="translate(-17.346 -43.365)" fill="#005526"/>
  <path id="Path_407" data-name="Path 407" d="M125.313,227.889H31.651A31.678,31.678,0,0,1,0,196.239V31.651A31.678,31.678,0,0,1,31.651,0H272.2a31.678,31.678,0,0,1,31.651,31.651V174.842a6.33,6.33,0,1,1-12.66,0V31.651A19.016,19.016,0,0,0,272.2,12.66H31.65A19.016,19.016,0,0,0,12.66,31.651V196.239A19.016,19.016,0,0,0,31.65,215.23h93.663a6.33,6.33,0,1,1,0,12.66Zm0,0" transform="translate(0)" fill="#005526"/>
  <path id="Path_408" data-name="Path 408" d="M342.978,161.994H305a6.331,6.331,0,0,1,0-12.662h37.982a6.331,6.331,0,0,1,0,12.662Zm0,0" transform="translate(-121.42 -60.709)" fill="#005526"/>
  <path id="Path_409" data-name="Path 409" d="M436.985,161.994H411.663a6.331,6.331,0,0,1,0-12.662h25.322a6.331,6.331,0,0,1,0,12.662Zm0,0" transform="translate(-164.783 -60.709)" fill="#005526"/>
  <path id="Path_410" data-name="Path 410" d="M393.622,225.994H305a6.331,6.331,0,0,1,0-12.662h88.625a6.331,6.331,0,0,1,0,12.662Zm0,0" transform="translate(-121.42 -86.728)" fill="#005526"/>
  <path id="Path_411" data-name="Path 411" d="M297.521,76.66H6.331a6.33,6.33,0,1,1,0-12.66h291.19a6.33,6.33,0,1,1,0,12.66Zm0,0" transform="translate(0 -26.018)" fill="#005526"/>
  <path id="Path_412" data-name="Path 412" d="M372.985,417.994H347.663a6.331,6.331,0,0,1,0-12.662h25.322a6.331,6.331,0,0,1,0,12.662Zm0,0" transform="translate(-138.764 -164.783)" fill="#005526"/>
  <path id="Path_413" data-name="Path 413" d="M287.65,409.322a6.333,6.333,0,0,1-6.329-6.331c0-3.255-10.5-6.192-19.093-6.331a6.33,6.33,0,0,1,.1-12.66h.1c3.229.051,31.551,1.013,31.551,18.991a6.333,6.333,0,0,1-6.331,6.331Zm0,0" transform="translate(-104.073 -156.111)" fill="#005526"/>
  <path id="Path_414" data-name="Path 414" d="M378.268,416.6h-12.66a12.521,12.521,0,0,1-12.66-12.66v-4.293a135.747,135.747,0,0,1-31.653,4.293,135.724,135.724,0,0,1-31.65-4.293v4.293a12.523,12.523,0,0,1-12.66,12.66H264.323a12.523,12.523,0,0,1-12.66-12.66V393.456c-5.457-8.244-6.331-24.371-6.331-33.83,0-13.559,4.154-31.284,13.409-41.31,5.253-16,18.08-31.613,26.7-35.918,4.81-2.392,21.156-5.065,35.853-5.065S352.341,280,357.137,282.4c8.647,4.3,21.46,19.916,26.715,35.918,9.243,10.026,13.406,27.737,13.406,41.31,0,9.458-.872,25.586-6.329,33.83v10.483a12.523,12.523,0,0,1-12.662,12.66Zm-18.991-31.651a6.235,6.235,0,0,1,3.7,1.2,6.3,6.3,0,0,1,2.633,5.128v12.662h12.66V391.277a6.374,6.374,0,0,1,1.85-4.481c1.862-1.848,4.481-11.522,4.481-27.169,0-11.445-3.684-26.613-10.736-33.436a6.422,6.422,0,0,1-1.671-2.747c-4.2-14.118-15.8-27.271-20.713-29.729-2.33-1.062-15.838-3.721-30.183-3.721s-27.853,2.659-30.22,3.746c-4.887,2.432-16.485,15.585-20.688,29.715a6.3,6.3,0,0,1-1.671,2.747c-7.038,6.811-10.722,21.979-10.722,33.424,0,15.648,2.62,25.322,4.481,27.169a6.372,6.372,0,0,1,1.848,4.481v12.662h12.662V391.277a6.335,6.335,0,0,1,8.329-6c.179.051,18.307,6,35.981,6s35.8-5.949,35.981-6.013a6.838,6.838,0,0,1,2-.315Zm0,0" transform="translate(-99.737 -112.746)" fill="#005526"/>
  <path id="Path_415" data-name="Path 415" d="M329.966,371c-14.331,0-56.124-6.127-57.9-6.394a6.335,6.335,0,0,1,1.848-12.535c.417.077,42.627,6.268,56.047,6.268s55.63-6.192,56.05-6.268a6.335,6.335,0,0,1,1.848,12.535c-1.773.267-43.564,6.394-57.9,6.394Zm0,0" transform="translate(-108.408 -143.109)" fill="#005526"/>
  <path id="Path_416" data-name="Path 416" d="M433,409.322a6.333,6.333,0,0,1-6.329-6.331c0-17.978,28.322-18.94,31.549-18.991,3.57.494,6.368,2.735,6.433,6.217a6.349,6.349,0,0,1-6.217,6.442c-8.659.165-19.1,3.014-19.1,6.331A6.333,6.333,0,0,1,433,409.322Zm0,0" transform="translate(-173.457 -156.111)" fill="#005526"/>
  <path id="Path_417" data-name="Path 417" d="M287.65,471.328h-25.32a6.33,6.33,0,1,1,0-12.66h25.32a6.33,6.33,0,1,1,0,12.66Zm0,0" transform="translate(-104.074 -186.466)" fill="#005526"/>
  <path id="Path_418" data-name="Path 418" d="M458.318,471.328H433a6.33,6.33,0,0,1,0-12.66h25.322a6.33,6.33,0,1,1,0,12.66Zm0,0" transform="translate(-173.457 -186.466)" fill="#005526"/>
  <path id="Path_419" data-name="Path 419" d="M247.328,354.166a6.309,6.309,0,0,1-4.115-1.518c-.886-.746-8.545-7.6-8.545-17.472a8.675,8.675,0,0,1,3.431-7.115,9.9,9.9,0,0,1,6.127-1.873c6.405,0,22.081,6.621,22.081,15.319a6.334,6.334,0,0,1-12.384,1.873,19.26,19.26,0,0,0-4.7-2.937,16.531,16.531,0,0,0,2.2,2.582,6.329,6.329,0,0,1-4.1,11.141Zm6.331-12.66" transform="translate(-95.402 -132.608)" fill="#005526"/>
  <path id="Path_420" data-name="Path 420" d="M477.659,354.166a6.329,6.329,0,0,1-4.115-11.141,14.536,14.536,0,0,0,2.214-2.594,19.4,19.4,0,0,0-4.708,2.949,6.333,6.333,0,0,1-12.382-1.873c0-8.7,15.673-15.319,22.079-15.319,5.636,0,9.572,3.7,9.572,8.988,0,9.876-7.659,16.726-8.545,17.472a6.309,6.309,0,0,1-4.115,1.518Zm-6.331-12.66" transform="translate(-186.466 -132.608)" fill="#005526"/>
</svg>
