<svg xmlns="http://www.w3.org/2000/svg" width="260.666" height="178.902" viewBox="0 0 260.666 178.902">
  <g id="id-card" transform="translate(0 -40.882)">
    <g id="Group_8" data-name="Group 8">
      <path id="Path_421" data-name="Path 421" d="M236.666,40.882H24a24.028,24.028,0,0,0-24,24v130.9a24.028,24.028,0,0,0,24,24H236.666a24.028,24.028,0,0,0,24-24V64.882A24.027,24.027,0,0,0,236.666,40.882Zm9,154.9a9.01,9.01,0,0,1-9,9H24a9.01,9.01,0,0,1-9-9V64.882a9.01,9.01,0,0,1,9-9H236.666a9.01,9.01,0,0,1,9,9Z" fill="#005526"/>
      <path id="Path_422" data-name="Path 422" d="M216.04,83.7H147.107a6,6,0,0,0,0,12H216.04a6,6,0,0,0,0-12Z" fill="#005526"/>
      <path id="Path_423" data-name="Path 423" d="M216.04,164.963H147.107a6,6,0,0,0,0,12H216.04a6,6,0,0,0,0-12Z" fill="#005526"/>
      <path id="Path_424" data-name="Path 424" d="M216.04,118.411H174.322a6,6,0,0,0,0,12H216.04a6,6,0,0,0,0-12Z" fill="#005526"/>
      <path id="Path_425" data-name="Path 425" d="M216.04,141.686H174.322a6,6,0,0,0,0,12H216.04a6,6,0,0,0,0-12Z" fill="#005526"/>
      <path id="Path_426" data-name="Path 426" d="M85.163,133.136a30.849,30.849,0,1,0-30.847-30.849A30.879,30.879,0,0,0,85.163,133.136Zm0-46.7a15.849,15.849,0,1,1-15.847,15.85A15.862,15.862,0,0,1,85.163,86.438Z" fill="#005526"/>
      <path id="Path_427" data-name="Path 427" d="M97.1,138.68H73.415a30.123,30.123,0,0,0-30.09,30.088v12.961a7.5,7.5,0,0,0,15,0V168.768a15.107,15.107,0,0,1,15.09-15.088H97.1a15.106,15.106,0,0,1,15.09,15.088v12.961a7.5,7.5,0,0,0,15,0V168.768A30.123,30.123,0,0,0,97.1,138.68Z" fill="#005526"/>
    </g>
  </g>
</svg>
